<?xml version="1.0" standalone="no"?>
<!DOCTYPE svg PUBLIC "-//W3C//DTD SVG 1.1//EN" "http://www.w3.org/Graphics/SVG/1.1/DTD/svg11.dtd" >
<svg>
<metadata>
Created by FontForge 20120731 at Fri Feb 22 20:08:37 2013
 By Stefan Warting
Copyright (c) Laurenz Brunner. www.lineto.com, 2004. All rights reserved.
</metadata>
<defs>
<font id="Akkurat-BoldItalic" horiz-adv-x="568" >
  <font-face 
    font-family="Akkurat-BoldItalic"
    font-weight="400"
    font-style="italic"
    font-stretch="normal"
    units-per-em="1000"
    panose-1="2 0 5 3 3 0 0 2 0 4"
    ascent="800"
    descent="-200"
    x-height="520"
    cap-height="709"
    bbox="-138 -293 1127 983"
    underline-thickness="45"
    underline-position="-71"
    unicode-range="U+0020-FB02"
  />
<missing-glyph horiz-adv-x="588" 
d="M425 74v549h-262v-549h262zM88 698h412v-698h-412v698z" />
    <glyph glyph-name="fi" unicode="fi" horiz-adv-x="656" 
d="M421 615q-21 6 -44 10t-45 4q-29 0 -46 -14t-22 -40l-9 -55h138l-18 -103h-139l-73 -417h-126l74 417h-89l18 103h89l11 65q5 29 17.5 56t34 47.5t53.5 33t76 12.5q31 0 60 -5t58 -14zM521 0h-128l91 520h128zM627 593h-135l23 129h135z" />
    <glyph glyph-name="fl" unicode="fl" horiz-adv-x="674" 
d="M421 615q-21 6 -44 10t-45 4q-29 0 -46 -14t-22 -40l-9 -55h138l-18 -103h-139l-73 -417h-126l74 417h-89l18 103h89l11 65q5 29 17.5 56t34 47.5t53.5 33t76 12.5q31 0 60 -5t58 -14zM542 155q-5 -25 4 -37.5t35 -12.5q14 0 29 3l-18 -107q-28 -7 -64 -7q-58 0 -90 35
q-20 23 -24.5 52.5t2.5 68.5l100 572h126z" />
    <glyph glyph-name=".notdef" horiz-adv-x="588" 
d="M425 74v549h-262v-549h262zM88 698h412v-698h-412v698z" />
    <glyph glyph-name=".null" horiz-adv-x="0" 
 />
    <glyph glyph-name="nonmarkingreturn" horiz-adv-x="207" 
 />
    <glyph glyph-name="space" unicode=" " horiz-adv-x="207" 
 />
    <glyph glyph-name="exclam" unicode="!" horiz-adv-x="339" 
d="M197 0h-132l24 133h132zM282 487l-76 -275h-75l20 275l40 222h131z" />
    <glyph glyph-name="quotedbl" unicode="&#x22;" horiz-adv-x="523" 
d="M197 392h-83l5 171l26 146h133l-26 -146zM424 392h-83l5 171l26 146h133l-26 -146z" />
    <glyph glyph-name="numbersign" unicode="#" horiz-adv-x="754" 
d="M574 414l-41 -133h121l-17 -96h-136l-58 -185h-103l58 185h-140l-58 -185h-103l58 185h-121l17 96h136l42 133h-122l17 97h136l59 184h102l-58 -184h140l59 184h102l-58 -184h121l-17 -97h-136zM333 413l-42 -131h138l42 131h-138z" />
    <glyph glyph-name="dollar" unicode="$" 
d="M393 699q83 -18 130 -75q21 -26 33 -56t12 -64q0 -4 -0.5 -8t-0.5 -8h-123q0 2 0.5 5t0.5 6q0 16 -5.5 31t-13.5 27t-21.5 21t-30.5 15l-32 -183q8 -2 16.5 -4t16.5 -4q33 -8 61 -23t48.5 -37t32 -50t11.5 -62q0 -51 -21.5 -95.5t-60.5 -76.5q-36 -29 -81.5 -42.5
t-94.5 -14.5l-16 -88h-74l17 94q-46 8 -85 28t-70 57q-20 25 -33 56.5t-13 69.5q0 5 0.5 11t1.5 12h122q-1 -5 -1 -9v-9q0 -20 6 -37.5t17 -31.5q14 -18 33 -27.5t41 -14.5l34 200q-11 2 -23.5 5.5t-23.5 6.5q-31 8 -57 22t-43 34q-20 23 -31 47.5t-11 58.5q0 51 22 92.5
t62 72.5q35 26 79.5 41t95.5 15l17 92h73zM301 602q-20 -2 -40.5 -7.5t-37.5 -18.5q-18 -14 -28.5 -33.5t-10.5 -42.5t18.5 -41.5t40.5 -24.5q8 -2 13.5 -4t13.5 -4zM405 215q0 32 -20.5 50t-48.5 26l-14 4l-34 -188q46 3 77 27q19 15 29.5 36t10.5 45z" />
    <glyph glyph-name="percent" unicode="%" horiz-adv-x="901" 
d="M622 267q-16 -14 -24 -35t-13 -46q-2 -11 -2.5 -21.5t-0.5 -20.5q0 -17 5.5 -29.5t13.5 -21.5t18.5 -14t27.5 -5q14 0 25.5 5t19.5 13q16 14 24 35.5t13 46.5q2 11 2.5 21.5t0.5 20.5q0 17 -5.5 29.5t-13.5 21.5t-18.5 14t-27.5 5q-14 0 -25.5 -5.5t-19.5 -13.5zM533 30
q-24 23 -36 53t-12 63v24t2 25q6 33 18 63t35 55q26 29 58 44t74 15q34 0 60 -10.5t49 -31.5q24 -23 36 -53t12 -63v-24t-2 -25q-6 -33 -18 -63t-35 -55q-26 -29 -58 -44t-74 -15q-34 0 -60 10.5t-49 31.5zM211 618q-16 -14 -24 -35.5t-13 -46.5q-2 -11 -2.5 -21.5
t-0.5 -20.5q0 -17 5.5 -29.5t13.5 -21.5t18.5 -14t27.5 -5q14 0 25.5 5t19.5 13q16 14 24 35.5t13 46.5q2 11 2.5 21.5t0.5 20.5q0 17 -5.5 29.5t-13.5 21.5t-18.5 14t-27.5 5q-14 0 -25.5 -5t-19.5 -13zM122 380q-24 23 -36 53t-12 63v24t2 25q6 33 18 63t35 55
q26 29 58 44t74 15q34 0 60 -10.5t49 -31.5q24 -23 36 -53t12 -63v-24t-2 -25q-6 -33 -18 -63t-35 -55q-26 -29 -58 -44t-74 -15q-34 0 -60 10.5t-49 31.5zM167 -21l-60 59l628 687l61 -61z" />
    <glyph glyph-name="ampersand" unicode="&#x26;" horiz-adv-x="740" 
d="M385 131q-33 49 -64.5 96.5t-64.5 96.5q-19 -9 -36 -18t-30.5 -21t-23 -27.5t-13.5 -38.5q-1 -5 -1.5 -10.5t-0.5 -10.5q0 -45 31.5 -70.5t76.5 -29.5q5 -1 11 -1h11q27 0 54 7t50 27zM420 560q0 29 -18.5 47t-47.5 20h-9q-29 0 -52.5 -16.5t-29.5 -50.5q-1 -5 -1 -15
q0 -29 16 -53.5t32 -46.5q18 8 35.5 15.5t32.5 18.5t25.5 26.5t14.5 37.5q1 5 1.5 9t0.5 8zM687 300h-82q-4 -19 -10.5 -41.5t-15.5 -46t-21 -46t-28 -41.5q14 -20 29 -41.5t28 -40.5q15 -22 30 -43h-142l-30 46q-43 -29 -89 -43.5t-94 -14.5q-8 0 -15 0.5t-14 1.5
q-42 4 -78 19t-63 40.5t-42 59.5t-15 76q0 10 1 19t3 20q11 66 53.5 110.5t104.5 73.5q-23 33 -37 62.5t-14 65.5q0 16 3 32q7 39 25.5 69t45.5 51t60.5 31.5t69.5 10.5h11t11 -1q35 -3 65 -15.5t52.5 -32.5t35.5 -48t13 -63q0 -15 -3 -32q-6 -34 -20.5 -61t-36.5 -48
t-49.5 -38t-59.5 -31l99 -144q12 16 22 47.5t16 56.5q6 24 8.5 43t5.5 36h184z" />
    <glyph glyph-name="quotesingle" unicode="'" horiz-adv-x="275" 
d="M241 563l-55 -171h-83l4 171l26 147h134z" />
    <glyph glyph-name="parenleft" unicode="(" horiz-adv-x="326" 
d="M397 740q-118 -112 -176.5 -242t-58.5 -296q0 -83 23.5 -160.5t61.5 -152.5l-79 -40q-54 89 -80.5 180.5t-26.5 191.5q0 177 69.5 324.5t206.5 258.5z" />
    <glyph glyph-name="parenright" unicode=")" horiz-adv-x="326" 
d="M-77 -87q118 112 176.5 242t58.5 296q0 83 -23.5 160.5t-61.5 152.5l79 40q54 -89 80.5 -180.5t26.5 -191.5q0 -177 -69.5 -324.5t-206.5 -258.5z" />
    <glyph glyph-name="asterisk" unicode="*" horiz-adv-x="523" 
d="M348 466l78 -125l-94 -65l-62 139l-110 -139l-76 65l123 128l-142 42l48 101l133 -60l15 160h112l-39 -161l153 60l19 -107z" />
    <glyph glyph-name="plus" unicode="+" horiz-adv-x="677" 
d="M383 255v-250h-113v250h-228v107h228v234h113v-234h228v-107h-228z" />
    <glyph glyph-name="comma" unicode="," horiz-adv-x="290" 
d="M172 12q-11 -65 -41.5 -109.5t-101.5 -72.5l-25 58q24 10 39 21t25 24.5t15 30t9 36.5h-76l28 156h153z" />
    <glyph glyph-name="hyphen" unicode="-" horiz-adv-x="461" 
d="M384 252h-343l20 112h343z" />
    <glyph glyph-name="period" unicode="." horiz-adv-x="291" 
d="M163 0h-153l28 156h153z" />
    <glyph glyph-name="slash" unicode="/" horiz-adv-x="387" 
d="M26 -13h-92l437 735h92z" />
    <glyph glyph-name="zero" unicode="0" 
d="M230 552q-19 -22 -31 -51t-19 -61q-11 -52 -22.5 -107.5t-11.5 -109.5q0 -39 15 -69q12 -23 36 -37t52 -14t49.5 12t36.5 29q19 22 31 51t19 61q11 52 22.5 107.5t11.5 109.5q0 39 -15 69q-12 23 -36 37t-52 14t-49.5 -12t-36.5 -29zM69 73q-25 35 -34 72.5t-10 84.5
q-1 36 3.5 71.5t9.5 67.5q8 43 18.5 84.5t26 79t38 69.5t53.5 56q28 21 63 36t82 15q55 0 102 -22t76 -64q25 -35 35 -73t10 -84q0 -36 -5 -71.5t-10 -67.5q-7 -43 -18 -84.5t-26.5 -79t-38 -69.5t-53.5 -56q-28 -21 -63 -36t-82 -15q-55 0 -101.5 22t-75.5 64z" />
    <glyph glyph-name="one" unicode="1" 
d="M324 0h-126l96 540l-173 -111l25 143l193 123h108z" />
    <glyph glyph-name="two" unicode="2" 
d="M524 532q0 -31 -8.5 -58.5t-23 -52.5t-34 -47.5t-41.5 -42.5l-237 -218h282l-20 -113h-448l20 113l331 305q22 20 37.5 47.5t15.5 57.5q0 38 -24.5 57t-59.5 19q-42 0 -68.5 -26t-31.5 -66l-1 -8h-128l3 19q7 42 26 77.5t48 60.5t68 39t86 14q40 0 77.5 -11t66.5 -33
t46.5 -55t17.5 -78z" />
    <glyph glyph-name="three" unicode="3" 
d="M526 529q0 -38 -14 -74t-40 -62q-30 -30 -76 -41q44 -17 66.5 -56.5t22.5 -85.5q0 -47 -15.5 -80.5t-43.5 -64.5q-35 -38 -88.5 -58t-111.5 -20q-47 0 -87.5 16.5t-69.5 45.5q-26 26 -41.5 62t-15.5 74q0 7 0.5 13t1.5 13h122q0 -3 -0.5 -5.5t-0.5 -5.5q0 -20 6 -38
t17 -30q17 -20 38 -27.5t42 -7.5q28 0 48 7.5t36 21.5q17 15 26.5 37t9.5 48q0 22 -10 39.5t-26 30t-36.5 19t-42.5 6.5h-42l19 109h52q24 0 47 6t40 18.5t27.5 31.5t10.5 44q0 34 -22 56q-12 12 -28.5 20t-36.5 8q-26 0 -45 -6.5t-35 -20.5q-14 -12 -23 -26.5t-14 -36.5
h-126q8 42 26 74.5t45 58.5q34 32 80 49.5t106 17.5q43 0 80 -13.5t64 -37.5t42.5 -57t15.5 -72z" />
    <glyph glyph-name="four" unicode="4" 
d="M512 140h-85l-24 -140h-126l25 140h-313l21 118l334 437h146l-337 -442h169l28 163h126l-29 -163h85z" />
    <glyph glyph-name="five" unicode="5" 
d="M541 583h-308l-37 -157q47 41 120 41q48 0 85.5 -15t63 -42t39 -65t13.5 -85q0 -48 -13 -90.5t-38 -77.5q-34 -48 -87 -77t-122 -29q-106 0 -169 59q-31 29 -46.5 67.5t-15.5 80.5v10h125v-7q0 -20 7 -37.5t19 -30.5q29 -31 79 -31q38 0 64 17.5t42 43.5q14 23 20 48.5
t6 51.5q0 49 -28 75t-76 26q-28 0 -54 -12t-45 -35l-121 27l83 356h414z" />
    <glyph glyph-name="six" unicode="6" 
d="M212 330q-24 -23 -36 -56t-12 -67q0 -47 26 -76q13 -14 31.5 -23t43.5 -9q23 0 42.5 10t33.5 24q24 23 36 56t12 67q0 47 -26 76q-13 14 -31.5 23t-43.5 9q-23 0 -42.5 -10t-33.5 -24zM419 524q0 25 -15 45q-13 18 -32 25.5t-42 7.5q-26 0 -46 -10.5t-36 -27.5
q-19 -20 -31.5 -47.5t-20.5 -54.5q-3 -10 -6 -22t-5 -21q26 26 59.5 36t63.5 10q54 0 93.5 -17t65.5 -49q23 -27 36 -61.5t13 -76.5q0 -55 -17.5 -105t-50.5 -87.5t-80 -59.5t-106 -22q-51 0 -93.5 18.5t-69.5 48.5q-30 33 -45 77.5t-15 95.5q0 35 2.5 66t8.5 64
q7 38 16.5 79.5t24.5 80.5t37 74t53 61q29 25 67 40.5t89 15.5q49 0 93.5 -15.5t76.5 -55.5q38 -47 38 -111v-2h-126z" />
    <glyph glyph-name="seven" unicode="7" 
d="M557 595l-376 -595h-145l371 583h-332l20 112h479z" />
    <glyph glyph-name="eight" unicode="8" 
d="M143 194q0 -22 8 -39t21 -29q31 -28 81 -28q51 0 85 31.5t34 82.5q0 22 -8 39t-21 29q-31 28 -81 28q-51 0 -85 -31.5t-34 -82.5zM211 500q0 -20 8.5 -35.5t20.5 -26.5q14 -12 31 -17t37 -5q45 0 74 27.5t29 72.5q0 20 -8.5 35t-20.5 26q-26 23 -68 23q-45 0 -74 -27.5
t-29 -72.5zM538 528q0 -77 -50 -130q-29 -30 -67 -45q38 -23 57 -62.5t19 -81.5q0 -52 -20.5 -93t-55 -69.5t-80 -44t-94.5 -15.5q-51 0 -95.5 15.5t-76.5 45.5q-26 25 -42.5 58.5t-16.5 78.5q0 35 12.5 69t37.5 61q17 19 38.5 34t48.5 25q-30 21 -48.5 57.5t-18.5 74.5
q0 45 19 82.5t50.5 64.5t74 42t88.5 15q45 0 87.5 -13t74.5 -43q27 -26 42.5 -57t15.5 -69z" />
    <glyph glyph-name="nine" unicode="9" 
d="M527 469q0 -35 -2.5 -66t-8.5 -64q-6 -35 -15.5 -76t-24.5 -81t-36.5 -76t-52.5 -62q-29 -25 -66.5 -40.5t-88.5 -15.5t-94.5 16t-75.5 58q-36 47 -36 105q0 3 0.5 6.5t0.5 6.5h124q-1 -4 -1 -12q0 -17 7 -30.5t17 -23.5q12 -12 28.5 -16t36.5 -4t36 6t29 16q22 17 37 43
q16 26 26.5 57t15.5 62q-23 -27 -58.5 -37t-66.5 -10q-46 0 -84.5 13.5t-66.5 42.5q-26 27 -41 65t-15 84q0 56 17.5 105.5t50.5 86.5t80 59t106 22q55 0 96.5 -17.5t69.5 -49t42 -76t14 -97.5zM403 489q0 49 -25 78.5t-76 29.5q-32 0 -55.5 -14.5t-39 -37t-23 -50.5
t-7.5 -56q0 -48 27 -77.5t76 -29.5q31 0 54 14.5t38.5 37t23 50.5t7.5 55z" />
    <glyph glyph-name="colon" unicode=":" horiz-adv-x="319" 
d="M177 0h-151l27 151h151zM243 369h-151l26 151h151z" />
    <glyph glyph-name="semicolon" unicode=";" horiz-adv-x="319" 
d="M178 12q-6 -33 -15.5 -60t-25.5 -49.5t-40.5 -40t-60.5 -31.5l-25 58q23 10 38.5 21t25 24.5t15.5 29.5t9 36h-76l27 151h152zM240 369h-152l27 151h152z" />
    <glyph glyph-name="less" unicode="&#x3c;" horiz-adv-x="464" 
d="M334 0l-322 323l321 322l70 -70l-254 -253l254 -254z" />
    <glyph glyph-name="equal" unicode="=" horiz-adv-x="688" 
d="M75 129v99h510v-99h-510zM75 328v98h510v-98h-510z" />
    <glyph glyph-name="greater" unicode="&#x3e;" horiz-adv-x="464" 
d="M130 0l-69 68l254 254l-254 253l70 70l321 -322z" />
    <glyph glyph-name="question" unicode="?" horiz-adv-x="520" 
d="M260 0h-140l25 140h140zM516 544q0 -18 -3 -36q-9 -53 -39.5 -87.5t-69.5 -60.5q-22 -15 -40.5 -27t-33.5 -26.5t-25 -33.5t-16 -47l-5 -24h-124q5 26 9 52.5t14 50.5q13 32 30.5 53.5t37 37t41 27.5t41.5 27q17 11 31.5 28t19.5 41q1 5 1 8v7q0 19 -8 33.5t-21.5 24
t-30.5 14.5t-36 5q-47 0 -78 -29q-14 -14 -22 -33.5t-9 -36.5h-130q7 43 20.5 78.5t45.5 66.5q35 34 81 50.5t100 16.5q43 0 82.5 -12t70 -35t48.5 -56.5t18 -76.5z" />
    <glyph glyph-name="at" unicode="@" horiz-adv-x="920" 
d="M539 349q0 12 -3 25t-10.5 23.5t-19.5 17t-30 6.5q-24 0 -41.5 -13.5t-29 -34.5t-17 -46t-5.5 -48q0 -32 14 -54t49 -22q27 0 44.5 14.5t28.5 36.5t15.5 47.5t4.5 47.5zM628 111q-19 0 -34.5 6t-26.5 15.5t-17.5 20.5t-8.5 21q-17 -30 -50.5 -46t-68.5 -16t-64 14t-49 39
q-17 21 -25.5 48t-8.5 58q0 41 10.5 82.5t33.5 76.5q24 36 60 59t84 23q34 0 64 -16.5t41 -43.5l24 46h84l-61 -248q-5 -18 0.5 -34t29.5 -16q30 0 50 21t33 46q16 31 22.5 69t6.5 73q0 53 -20.5 93t-55.5 67.5t-82 41.5t-100 14q-75 0 -135 -28.5t-102.5 -76.5t-65 -110.5
t-22.5 -129.5q0 -55 17.5 -102.5t50.5 -82.5q25 -26 52 -42.5t57.5 -26.5t65 -13.5t73.5 -3.5q21 0 46.5 4t52.5 11t52.5 16t45.5 19l-16 -95q-20 -12 -46.5 -21.5t-54 -16t-54.5 -10t-48 -3.5q-92 0 -167.5 26t-138.5 90q-44 45 -69.5 107.5t-25.5 137.5q0 96 33.5 177.5
t92 141.5t138 94t172.5 34q74 0 138.5 -22t113.5 -63t77 -100t28 -134q0 -53 -14.5 -105t-43.5 -93.5t-72.5 -67t-101.5 -25.5z" />
    <glyph glyph-name="A" unicode="A" horiz-adv-x="632" 
d="M351 551l-155 -299h204zM441 0l-22 136h-282l-70 -136h-137l374 709h148l124 -709h-135z" />
    <glyph glyph-name="B" unicode="B" horiz-adv-x="664" 
d="M471 228q0 42 -30 63.5t-75 21.5h-162l-35 -197h155q29 0 55.5 5.5t46.5 19t32.5 35t12.5 52.5zM505 521q0 31 -24 54t-75 23h-152l-31 -178h158q26 0 48.5 5t39.5 17t26.5 31.5t9.5 47.5zM640 539q0 -27 -7.5 -53.5t-22 -50t-35.5 -42t-49 -30.5q37 -19 57 -56.5
t20 -78.5q0 -56 -26.5 -104t-71.5 -79q-46 -31 -97.5 -38t-102.5 -7h-285l125 709h273q43 0 85 -9.5t74 -32.5q29 -21 46 -56t17 -72z" />
    <glyph glyph-name="C" unicode="C" horiz-adv-x="628" 
d="M490 476q0 25 -8 49t-27 44q-32 35 -89 35q-38 0 -63.5 -13.5t-46.5 -34.5q-23 -23 -40 -59t-28.5 -77t-17 -81.5t-5.5 -72.5q0 -35 9 -67t32 -56q38 -39 98 -39q32 0 57 10t45 28q32 30 46 74h132q-8 -40 -31 -79.5t-55 -71.5q-81 -78 -198 -78q-54 0 -103 18t-87 56
q-42 42 -58.5 96t-16.5 111q0 45 7.5 95.5t23 100t39 94t55.5 76.5q42 42 94 65t115 23q53 0 99.5 -16.5t82.5 -51.5t53.5 -81t17.5 -97h-132z" />
    <glyph glyph-name="D" unicode="D" horiz-adv-x="680" 
d="M518 442q0 28 -6 52.5t-20 44.5q-18 26 -51 40t-75 14h-112l-84 -477h140q42 0 71 12t50 34t37 57.5t27.5 75.5t17 79t5.5 68zM645 451q0 -42 -7 -96t-23.5 -108.5t-44.5 -103.5t-69 -82q-79 -61 -205 -61h-276l125 709h238q60 0 117.5 -22.5t94.5 -72.5q28 -38 39 -78
t11 -85z" />
    <glyph glyph-name="E" unicode="E" horiz-adv-x="628" 
d="M625 592h-370l-30 -165h327l-21 -116h-327l-34 -194h376l-21 -117h-505l126 709h500z" />
    <glyph glyph-name="F" unicode="F" horiz-adv-x="586" 
d="M610 592h-355l-34 -190h319l-20 -117h-320l-50 -285h-130l126 709h485z" />
    <glyph glyph-name="G" unicode="G" horiz-adv-x="671" 
d="M495 488q0 23 -8 43t-22 36q-15 17 -39.5 27t-57.5 10q-38 0 -65 -13.5t-48 -34.5q-23 -23 -40 -59t-28.5 -77t-17 -81.5t-5.5 -72.5q0 -35 9 -67t32 -56q18 -19 45 -29t53 -10q70 0 115 46q20 20 33.5 46.5t18.5 55.5l2 10t1.5 10t1.5 9h-169l19 107h292l-69 -388h-85
v59q-22 -29 -66 -50t-102 -21q-54 0 -100.5 17t-84.5 55q-42 42 -58.5 96.5t-16.5 111.5q0 45 7.5 95.5t23 100t39 94t55.5 76.5q42 42 95 65t116 23q65 0 111 -18.5t79 -52.5q32 -32 49 -75t17 -88h-132z" />
    <glyph glyph-name="H" unicode="H" horiz-adv-x="714" 
d="M569 0h-130l54 309h-289l-54 -309h-130l125 709h130l-49 -277h289l49 277h130z" />
    <glyph glyph-name="I" unicode="I" horiz-adv-x="297" 
d="M152 0h-132l125 709h132z" />
    <glyph glyph-name="J" unicode="J" horiz-adv-x="500" 
d="M400 190q-17 -96 -77 -149.5t-148 -53.5q-48 0 -92 16.5t-74 57.5q-35 48 -35 119q0 20 3 42h125q-3 -18 -3 -35q0 -38 20.5 -60.5t60.5 -22.5q37 0 60.5 25t30.5 62l91 518h130z" />
    <glyph glyph-name="K" unicode="K" horiz-adv-x="671" 
d="M430 434l185 -434h-145l-137 339l-150 -145l-34 -194h-129l125 709h130l-57 -319l331 319h166z" />
    <glyph glyph-name="L" unicode="L" horiz-adv-x="550" 
d="M478 0h-458l126 709h129l-104 -587h329z" />
    <glyph glyph-name="M" unicode="M" horiz-adv-x="877" 
d="M732 0h-126l95 515l-276 -505h-95l-99 502l-85 -512h-126l125 709h162l100 -512l280 512h170z" />
    <glyph glyph-name="N" unicode="N" horiz-adv-x="733" 
d="M587 0h-133l-222 509l-84 -509h-128l125 709h138l218 -503l84 503h127z" />
    <glyph glyph-name="O" unicode="O" horiz-adv-x="671" 
d="M504 442q0 35 -9 67t-32 56q-39 39 -96 39q-38 0 -64 -13.5t-47 -34.5q-23 -23 -40 -59t-28.5 -77t-17 -81.5t-5.5 -72.5q0 -35 9 -67t32 -56q39 -39 96 -39q38 0 64.5 13t47.5 34q23 23 40 59.5t28 77t16.5 81.5t5.5 73zM636 440q0 -45 -7.5 -95.5t-22.5 -99.5
t-38.5 -93.5t-55.5 -76.5q-42 -42 -95.5 -65t-116.5 -23q-54 0 -103 18t-87 56q-42 42 -58.5 96t-16.5 111q0 45 7.5 95.5t23 99.5t39 93.5t55.5 76.5q42 42 94 65t115 23q54 0 103.5 -18t87.5 -56q42 -42 59 -96t17 -111z" />
    <glyph glyph-name="P" unicode="P" horiz-adv-x="621" 
d="M502 496q0 43 -27.5 71.5t-84.5 28.5h-136l-40 -229h144q65 0 104.5 30.5t39.5 98.5zM635 509q0 -63 -21 -110.5t-58.5 -80t-89.5 -48.5t-113 -16h-159l-45 -254h-129l125 709h265q47 0 88 -14.5t71.5 -40.5t48 -63t17.5 -82z" />
    <glyph glyph-name="Q" unicode="Q" horiz-adv-x="671" 
d="M504 442q0 35 -9 67t-32 56q-39 39 -96 39q-38 0 -64 -13.5t-47 -34.5q-23 -23 -40 -59t-28.5 -77t-17 -81.5t-5.5 -72.5q0 -35 9 -67t32 -56q39 -39 96 -39q14 0 25 2t22 5l-62 100l83 51l59 -94q19 26 33 61t23.5 72.5t14 74.5t4.5 66zM636 440q0 -45 -7.5 -95.5
t-22.5 -99.5t-38.5 -93.5t-55.5 -76.5q-4 -4 -8 -7.5t-8 -7.5l49 -77l-84 -53l-49 78q-52 -21 -112 -21q-54 0 -103 18t-87 56q-42 42 -58.5 96t-16.5 111q0 45 7.5 95.5t23 99.5t39 93.5t55.5 76.5q42 42 94 65t115 23q54 0 103.5 -18t87.5 -56q42 -42 59 -96t17 -111z" />
    <glyph glyph-name="R" unicode="R" horiz-adv-x="667" 
d="M520 505q0 42 -29 66.5t-86 24.5h-151l-37 -211h159q30 0 56 6.5t45.5 21t31 37t11.5 55.5zM653 513q0 -45 -13 -82.5t-35.5 -66t-54 -48t-67.5 -28.5l87 -288h-134l-81 272h-158l-48 -272h-129l125 709h280q51 0 93 -14.5t72 -41t46.5 -62.5t16.5 -78z" />
    <glyph glyph-name="S" unicode="S" horiz-adv-x="622" 
d="M468 497q0 29 -11.5 50t-30 35t-43 21t-50.5 7q-47 0 -85 -25q-19 -13 -31.5 -31.5t-12.5 -43.5q0 -16 5.5 -28t14 -20.5t18.5 -14t19 -7.5l147 -35q32 -7 61 -23.5t51 -40.5t34.5 -55.5t12.5 -69.5q0 -50 -18 -88.5t-49 -67.5q-40 -37 -95 -55t-115 -18q-63 0 -117.5 17
t-98.5 59q-32 31 -51 72t-19 84v16h133q0 -46 28 -83q24 -32 56.5 -42t74.5 -10q23 0 48 6t45 18.5t33 32t13 46.5q0 32 -19.5 52t-48.5 27l-150 36q-30 7 -56.5 23t-46.5 39t-31.5 52t-11.5 62q0 55 24 97t60 71q78 60 187 60q125 0 196 -71q30 -30 46.5 -67.5t16.5 -79.5
v-7h-133z" />
    <glyph glyph-name="T" unicode="T" horiz-adv-x="560" 
d="M590 589h-207l-103 -589h-130l104 589h-207l22 120h543z" />
    <glyph glyph-name="U" unicode="U" horiz-adv-x="694" 
d="M605 248q-10 -59 -34 -107t-61 -82.5t-86 -53t-109 -18.5q-57 0 -106 14.5t-84.5 44.5t-55.5 75.5t-20 106.5q0 33 6 69l72 412h131l-74 -422q-5 -28 -5 -49q0 -67 37 -100.5t102 -33.5q68 0 106.5 43t51.5 114l80 448h130z" />
    <glyph glyph-name="V" unicode="V" horiz-adv-x="592" 
d="M304 0h-144l-109 709h130l74 -550l269 550h139z" />
    <glyph glyph-name="W" unicode="W" horiz-adv-x="882" 
d="M659 0h-131l-62 494l-232 -494h-130l-20 709h119l12 -500l229 490h107l62 -490l184 500h126z" />
    <glyph glyph-name="X" unicode="X" horiz-adv-x="600" 
d="M379 360l159 -360h-136l-112 260l-203 -260h-148l285 361l-157 348h135l110 -250l200 250h149z" />
    <glyph glyph-name="Y" unicode="Y" horiz-adv-x="590" 
d="M337 272l-48 -272h-130l48 272l-168 437h132l118 -313l230 313h144z" />
    <glyph glyph-name="Z" unicode="Z" horiz-adv-x="614" 
d="M616 582l-457 -465h386l-21 -117h-555l23 127l458 465h-370l21 117h538z" />
    <glyph glyph-name="bracketleft" unicode="[" horiz-adv-x="361" 
d="M394 695h-140l-134 -758h140l-15 -85h-235l164 928h235z" />
    <glyph glyph-name="backslash" unicode="\" horiz-adv-x="387" 
d="M238 -13l-177 735h85l177 -735h-85z" />
    <glyph glyph-name="bracketright" unicode="]" horiz-adv-x="361" 
d="M167 -148h-235l15 85h140l134 758h-140l15 85h235z" />
    <glyph glyph-name="asciicircum" unicode="^" horiz-adv-x="538" 
d="M363 404l-83 163l-84 -163h-133l170 318h99l169 -318h-138z" />
    <glyph glyph-name="underscore" unicode="_" horiz-adv-x="585" 
d="M-31 -90v88h539v-88h-539z" />
    <glyph glyph-name="grave" unicode="`" horiz-adv-x="253" 
d="M267 566l-200 112l56 91l184 -138z" />
    <glyph glyph-name="a" unicode="a" horiz-adv-x="590" 
d="M386 313q0 22 -5.5 43t-17 37t-29.5 25.5t-44 9.5t-46 -11t-35 -26q-16 -16 -27.5 -38t-19 -46.5t-11 -50t-3.5 -47.5q0 -48 23 -82t75 -34q26 0 44.5 11.5t33.5 26.5q33 34 47.5 84.5t14.5 97.5zM454 0h-101v59q-25 -37 -64 -54.5t-76 -17.5q-39 0 -72.5 13t-60.5 42
q-32 34 -45.5 77.5t-13.5 88.5q0 33 6 68.5t17.5 69t29 64t40.5 54.5q32 32 71 50.5t84 18.5q51 0 89.5 -20t54.5 -51l23 58h110z" />
    <glyph glyph-name="b" unicode="b" horiz-adv-x="594" 
d="M413 308q0 24 -6 46t-18 38.5t-30.5 26t-43.5 9.5q-26 0 -45 -10.5t-34 -25.5q-15 -16 -26.5 -38t-19 -46.5t-11.5 -49.5t-4 -47q0 -23 5 -45t18 -38q11 -15 30 -25t48 -10q23 0 42.5 10.5t34.5 25.5q16 16 27 37.5t18.5 45.5t11 49t3.5 47zM541 312q0 -41 -8 -83.5
t-25 -81.5t-43 -72t-62 -56q-23 -15 -51 -23.5t-60 -8.5q-51 0 -87.5 19.5t-56.5 48.5l-26 -55h-107l127 721h126l-40 -233q26 24 58.5 34.5t61.5 10.5q39 0 73.5 -13.5t61.5 -42.5q32 -34 45 -77t13 -88z" />
    <glyph glyph-name="c" unicode="c" horiz-adv-x="529" 
d="M491 332q0 -2 -0.5 -3.5t-0.5 -3.5h-123v8q0 15 -3.5 30t-11.5 27q-11 16 -27 25.5t-43 9.5q-26 0 -41.5 -8t-29.5 -19q-18 -15 -30 -37t-20 -47.5t-11.5 -51.5t-3.5 -49t5.5 -44t17 -37.5t30 -26.5t44.5 -10q35 0 63.5 21t36.5 55h123q-8 -42 -29.5 -76t-52.5 -58
t-69.5 -37t-80.5 -13q-58 0 -105.5 26.5t-75.5 74.5q-16 27 -24 62t-8 71q0 66 23 132t71 112q29 28 73.5 48t97.5 20t92.5 -17t65.5 -48q22 -26 34.5 -59.5t12.5 -76.5z" />
    <glyph glyph-name="d" unicode="d" horiz-adv-x="591" 
d="M386 309q0 25 -5.5 46.5t-17.5 37.5t-31.5 25.5t-46.5 9.5q-23 0 -42 -10.5t-34 -25.5t-26.5 -37t-19 -46.5t-11.5 -49.5t-4 -47q0 -24 5 -45.5t17 -38t30.5 -26t45.5 -9.5q26 0 44.5 11t33.5 26q15 16 27 37.5t19.5 45.5t11.5 49t4 47zM455 0h-102v59q-12 -19 -28.5 -33
t-35.5 -22.5t-38.5 -12.5t-37.5 -4q-80 0 -133 56q-32 34 -45.5 77t-13.5 88q0 41 8 83.5t25 81.5t43 72t62 56q23 15 50.5 23.5t59.5 8.5q51 0 88.5 -19.5t54.5 -48.5l46 257h124z" />
    <glyph glyph-name="e" unicode="e" horiz-adv-x="557" 
d="M392 326q0 20 -6.5 40t-20.5 36q-13 14 -32 22t-45 8q-24 0 -46 -9.5t-36 -21.5q-20 -17 -32.5 -40t-20.5 -49h238q0 4 0.5 7t0.5 7zM510 303q0 -31 -6 -64q-1 -5 -2 -9t-2 -9h-360q0 -24 3 -46.5t17 -43.5q15 -22 38.5 -32.5t48.5 -10.5q34 0 61.5 14.5t40.5 45.5h120
q-9 -29 -24 -53.5t-38 -46.5q-29 -28 -71 -44.5t-95 -16.5q-48 0 -87.5 17t-68.5 46q-32 32 -48 78t-16 89q0 34 6 67q9 52 32.5 98t61.5 82q29 28 75 48.5t102 20.5q66 0 114.5 -31t71.5 -79q8 -17 13 -31.5t8 -28.5t4 -28.5t1 -31.5z" />
    <glyph glyph-name="f" unicode="f" horiz-adv-x="379" 
d="M421 615q-21 6 -44 10t-45 4q-29 0 -46 -14t-22 -40l-9 -55h138l-18 -103h-139l-73 -417h-126l74 417h-89l18 103h89l11 65q5 29 17.5 56t34 47.5t53.5 33t76 12.5q31 0 60 -5t58 -14z" />
    <glyph glyph-name="g" unicode="g" horiz-adv-x="529" 
d="M331 -68q0 23 -18 35.5t-37 14.5l-144 15q-26 -8 -42.5 -25t-16.5 -47q0 -11 5 -21t11 -17q9 -10 22 -16t27.5 -9.5t28.5 -5t25 -1.5q31 0 62.5 6t55.5 27q21 19 21 44zM358 356q0 37 -24 61q-13 12 -29 17.5t-33 5.5q-20 0 -36.5 -8t-29.5 -19q-17 -16 -26 -38t-9 -45
q0 -19 7 -34.5t18 -26.5q13 -12 28.5 -17t32.5 -5q20 0 36 7t29 18q17 16 26.5 38.5t9.5 45.5zM520 467q-2 0 -5 0.5t-5 0.5q-17 0 -33 -5t-27 -16q27 -42 27 -92q0 -37 -14 -71.5t-40 -61.5q-32 -34 -76 -52t-92 -18q-57 0 -98 20q-12 -7 -24.5 -17.5t-12.5 -30.5
q0 -10 5.5 -15.5t13 -9t16.5 -4.5t16 -2l151 -16q26 -3 49.5 -14t41 -29t28 -41t10.5 -48q0 -35 -14 -66.5t-37 -54.5q-21 -20 -46.5 -33t-53.5 -20.5t-58 -10t-61 -2.5q-43 0 -86.5 9.5t-77.5 36.5q-24 20 -37 45.5t-13 52.5q0 36 17 69.5t65 59.5q-17 12 -27 30.5
t-10 42.5q0 38 22.5 67.5t56.5 48.5q-39 45 -39 107q0 45 16 81.5t43 63.5q30 30 72 46t90 16q31 0 60.5 -7t55.5 -22q23 32 52.5 46.5t61.5 14.5h17t17 -2z" />
    <glyph glyph-name="h" unicode="h" horiz-adv-x="591" 
d="M524 385q0 -25 -5 -53l-59 -332h-125l56 315q3 17 3 32q0 31 -15.5 50.5t-54.5 19.5q-29 0 -56 -20t-44 -46q-14 -21 -25 -54.5t-19 -75.5l-39 -221h-126l127 722h126l-44 -249q32 31 71.5 45.5t75.5 14.5q38 0 67 -11.5t49 -31.5q21 -20 29 -48t8 -57z" />
    <glyph glyph-name="i" unicode="i" horiz-adv-x="278" 
d="M143 0h-128l91 520h128zM249 593h-135l23 129h135z" />
    <glyph glyph-name="j" unicode="j" horiz-adv-x="284" 
d="M131 -86q-11 -62 -56 -96.5t-107 -34.5q-28 0 -55.5 7t-50.5 22l18 101q15 -8 33 -14t35 -6q27 0 41.5 15.5t19.5 39.5l100 572h127zM253 593h-135l23 129h135z" />
    <glyph glyph-name="k" unicode="k" horiz-adv-x="572" 
d="M363 313l152 -313h-140l-107 228l-103 -94l-24 -134h-126l127 722h126l-72 -409l225 207h169z" />
    <glyph glyph-name="l" unicode="l" horiz-adv-x="295" 
d="M163 155q-5 -25 4 -37.5t35 -12.5q14 0 29 3l-18 -107q-28 -7 -64 -7q-58 0 -90 35q-20 23 -24.5 52.5t2.5 68.5l100 572h126z" />
    <glyph glyph-name="m" unicode="m" horiz-adv-x="886" 
d="M820 398q0 -17 -2 -35.5t-5 -35.5l-59 -327h-126l56 310q2 11 3.5 22t1.5 22q0 31 -18 47t-46 16q-24 0 -44 -12.5t-35 -30.5q-13 -16 -23 -35.5t-17 -40t-12 -40.5t-8 -37l-40 -221h-123l55 310q5 23 5 44q0 27 -16 45t-49 18q-31 0 -54 -20t-39 -44q-8 -12 -15 -29
t-13 -35t-10 -36t-7 -32l-40 -221h-125l92 520h102v-63q27 34 70.5 55t86.5 21q26 0 48 -4.5t42 -18.5q20 -15 32 -34.5t14 -35.5q30 41 75 67t96 26q35 0 60.5 -9.5t45.5 -27.5q21 -19 31 -45.5t10 -52.5z" />
    <glyph glyph-name="n" unicode="n" horiz-adv-x="590" 
d="M524 385q0 -25 -5 -53l-59 -332h-125l56 315q3 17 3 32q0 31 -15.5 50.5t-54.5 19.5q-29 0 -55.5 -20t-43.5 -46q-14 -21 -25.5 -54.5t-19.5 -75.5l-39 -221h-126l92 520h103v-63q33 38 76.5 57t84.5 19q38 0 67 -11.5t49 -31.5q21 -20 29 -48t8 -57z" />
    <glyph glyph-name="o" unicode="o" horiz-adv-x="560" 
d="M380 313q0 20 -4 37.5t-15 33.5q-14 20 -35 30t-45 10q-23 0 -40.5 -8.5t-31.5 -19.5q-18 -15 -30.5 -38t-20 -48.5t-10.5 -52.5t-3 -50q0 -20 4 -37.5t15 -33.5q14 -20 35 -30t45 -10q23 0 40.5 8.5t31.5 19.5q18 15 30.5 38t20 48.5t10.5 52.5t3 50zM506 308
q0 -70 -22 -137.5t-74 -117.5q-29 -28 -74 -47t-98 -19q-41 0 -79.5 13.5t-69.5 42.5q-35 33 -51.5 77t-16.5 92q0 70 22 137.5t74 117.5q29 28 73 47t97 19q41 0 81 -13.5t71 -42.5q35 -33 51 -77t16 -92z" />
    <glyph glyph-name="p" unicode="p" horiz-adv-x="598" 
d="M416 308q0 17 -3 35.5t-11 34.5q-14 28 -36.5 38.5t-47.5 10.5q-26 0 -45 -10.5t-34 -25.5q-15 -16 -26.5 -37.5t-19 -46t-11.5 -49.5t-4 -47q0 -25 5.5 -46.5t17.5 -37.5t31.5 -25.5t46.5 -9.5q23 0 42.5 10.5t34.5 25.5t26.5 37t19 46.5t11 49.5t3.5 47zM544 312
q0 -18 -2 -36t-5 -36q-27 -154 -131 -221q-23 -15 -51 -23.5t-60 -8.5q-51 0 -88.5 19t-55.5 48l-43 -253h-126l127 719v-3l1 3h101v-54q11 16 27.5 28.5t35.5 21t39 13t38 4.5q39 0 73.5 -13.5t61.5 -42.5q32 -34 45 -77t13 -88z" />
    <glyph glyph-name="q" unicode="q" horiz-adv-x="590" 
d="M386 309q0 23 -5 45t-18 38q-11 15 -30 25t-48 10q-23 0 -42.5 -10.5t-34.5 -25.5q-16 -16 -27 -37.5t-18.5 -45.5t-11 -49t-3.5 -47q0 -24 6 -45.5t18 -38t30.5 -26.5t43.5 -10q26 0 45 10.5t34 25.5q23 24 36 57t19 66q2 14 4 29t2 29zM419 -199h-126l40 231
q-24 -22 -57.5 -33.5t-62.5 -11.5q-39 0 -73 13.5t-61 42.5q-32 34 -45 77t-13 88q0 41 8 83.5t25 81.5t42.5 72t61.5 56q23 15 51 23.5t60 8.5q51 0 89 -19t55 -49l26 55h107z" />
    <glyph glyph-name="r" unicode="r" horiz-adv-x="400" 
d="M391 395q-14 5 -29 7.5t-29 2.5q-60 0 -97.5 -38.5t-48.5 -102.5l-46 -264h-126l91 520h105v-67q24 38 64 53.5t81 15.5q14 0 28 -2t28 -5z" />
    <glyph glyph-name="s" unicode="s" horiz-adv-x="512" 
d="M354 357v1q0 30 -15 48q-26 32 -83 32q-16 0 -34 -5t-30 -16q-21 -18 -21 -44q0 -23 16.5 -33t34.5 -15l107 -26q23 -5 43 -17t34 -25q19 -18 29.5 -42t10.5 -53q0 -84 -67 -134q-31 -23 -71 -32t-84 -9q-26 0 -53 4.5t-52 14t-46.5 24.5t-36.5 37q-14 20 -23.5 46
t-9.5 56v4h116q0 -18 6 -31.5t15 -24.5q14 -18 40.5 -25.5t53.5 -7.5q17 0 34 3.5t30.5 11.5t21.5 21t8 31t-11 30.5t-31 17.5l-108 26q-25 6 -49 16t-42 29q-17 18 -26.5 39t-9.5 51q0 43 20.5 77.5t54.5 57.5q56 38 138 38q53 0 100 -18.5t76 -60.5q14 -20 22.5 -43.5
t8.5 -46.5v-7h-117z" />
    <glyph glyph-name="t" unicode="t" horiz-adv-x="398" 
d="M371 417h-130l-44 -248q-1 -5 -1 -15q0 -47 58 -47q22 0 42.5 5.5t37.5 12.5l-19 -109q-54 -23 -107 -23q-31 0 -56.5 8.5t-43.5 25.5q-39 38 -39 101q0 12 1.5 25.5t3.5 27.5l41 236h-93l18 103h93l23 130l132 39l-29 -169h131z" />
    <glyph glyph-name="u" unicode="u" horiz-adv-x="576" 
d="M441 0h-103v63q-32 -42 -71 -59t-80 -17q-39 0 -69 13.5t-50 35.5q-32 35 -36 85q-2 16 -1.5 32.5t3.5 34.5l59 332h125l-55 -315q-3 -16 -3 -32t4 -30t13 -23t21 -13.5t32 -4.5q29 0 53.5 19.5t41.5 45.5q14 21 24 55.5t18 76.5l39 221h126z" />
    <glyph glyph-name="v" unicode="v" horiz-adv-x="504" 
d="M256 0h-133l-101 520h125l65 -366l188 366h136z" />
    <glyph glyph-name="w" unicode="w" horiz-adv-x="767" 
d="M556 0h-114l-59 355l-177 -355h-116l-40 520h116l23 -341l165 336h103l54 -335l140 340h124z" />
    <glyph glyph-name="x" unicode="x" horiz-adv-x="518" 
d="M319 264l133 -264h-137l-85 176l-143 -176h-145l227 265l-136 255h139l84 -171l145 171h144z" />
    <glyph glyph-name="y" unicode="y" horiz-adv-x="528" 
d="M204 -112q-14 -26 -28.5 -44t-34.5 -32q-38 -29 -101 -29q-26 0 -57.5 10t-52.5 24l18 101q17 -11 40 -19t43 -8t35.5 9t27.5 30l41 71l-112 519h131l69 -373l194 373h136z" />
    <glyph glyph-name="z" unicode="z" horiz-adv-x="503" 
d="M471 407l-317 -304h268l-18 -103h-424l20 110l321 307h-265l18 103h417z" />
    <glyph glyph-name="braceleft" unicode="{" horiz-adv-x="377" 
d="M249 -148q-43 0 -72 14.5t-46 38.5t-22 54t1 62l23 124q12 66 -12.5 93t-83.5 32l16 93q29 3 52.5 9.5t41 20.5t29 37t17.5 57l21 124q6 35 20 65.5t38 53.5t57.5 36.5t78.5 13.5h53l-15 -85h-34q-51 0 -73.5 -24.5t-30.5 -66.5l-27 -154q-4 -22 -14.5 -43.5t-27 -39.5
t-39 -31t-50.5 -17l-1 -3q17 -4 30.5 -11.5t24.5 -17.5q21 -20 27.5 -48t1.5 -57l-27 -154q-8 -43 7 -67t65 -24h34l-15 -85h-48z" />
    <glyph glyph-name="bar" unicode="|" horiz-adv-x="266" 
d="M84 -148v928h98v-928h-98z" />
    <glyph glyph-name="braceright" unicode="}" horiz-adv-x="377" 
d="M114 780q43 0 72 -14.5t46 -38.5t22 -54t-1 -62l-23 -124q-12 -66 12.5 -93t83.5 -32l-16 -93q-29 -3 -52.5 -9.5t-41 -20.5t-29 -36.5t-17.5 -57.5l-21 -124q-6 -35 -20 -65.5t-38 -53.5t-57.5 -36.5t-78.5 -13.5h-53l15 85h34q51 0 73.5 24.5t30.5 66.5l27 154
q4 22 14.5 43.5t27 39.5t39 31t50.5 17l1 3q-17 4 -30.5 11.5t-24.5 17.5q-21 20 -28 48t-2 57l28 154q8 43 -7 67t-65 24h-34l15 85h48z" />
    <glyph glyph-name="asciitilde" unicode="~" horiz-adv-x="681" 
d="M613 306q-22 -20 -45 -38t-47.5 -32t-51 -22t-55.5 -8t-54 9.5t-47.5 21.5t-43 21.5t-40.5 9.5q-31 0 -62.5 -18.5t-54.5 -39.5l-62 93q22 20 44 38.5t45.5 32.5t49.5 22.5t55 8.5t53.5 -9.5t47.5 -20.5t44 -20.5t42 -9.5q31 0 63 16.5t56 37.5z" />
    <glyph glyph-name="Adieresis" unicode="&#xc4;" horiz-adv-x="632" 
d="M351 551l-155 -299h204zM441 0l-22 136h-282l-70 -136h-137l374 709h148l124 -709h-135zM345 791h-117l22 121h117zM551 791h-117l22 121h117z" />
    <glyph glyph-name="Aring" unicode="&#xc5;" horiz-adv-x="632" 
d="M351 551l-154 -299h202zM435 763q0 22 -15.5 37t-37.5 15t-37 -15t-15 -37t15 -37.5t37 -15.5t37.5 15.5t15.5 37.5zM441 0l-22 136h-282l-70 -136h-137l360 682q-30 35 -30 81q0 26 9.5 48t26 38t39 25.5t47.5 9.5q26 0 48 -9.5t38.5 -25.5t26 -38t9.5 -48
q0 -29 -12 -53t-32 -41l116 -669h-135z" />
    <glyph glyph-name="Ccedilla" unicode="&#xc7;" horiz-adv-x="628" 
d="M490 476q0 25 -8 49t-27 44q-32 35 -89 35q-38 0 -63.5 -13.5t-46.5 -34.5q-23 -23 -40 -59t-28.5 -77t-17 -81.5t-5.5 -72.5q0 -35 9 -67t32 -56q38 -39 98 -39q32 0 57 10t45 28q32 30 46 74h132q-8 -40 -31 -79.5t-55 -71.5q-81 -78 -198 -78q-54 0 -103 18t-87 56
q-42 42 -58.5 96t-16.5 111q0 45 7.5 95.5t23 100t39 94t55.5 76.5q42 42 94 65t115 23q51 0 98 -17t83 -52t54 -80.5t18 -96.5h-132zM220 -240l-85 49l109 150h97z" />
    <glyph glyph-name="Eacute" unicode="&#xc9;" horiz-adv-x="628" 
d="M625 592h-370l-30 -165h327l-21 -116h-327l-34 -194h376l-21 -117h-505l126 709h500zM318 779l-29 71l206 104l39 -99z" />
    <glyph glyph-name="Ntilde" unicode="&#xd1;" horiz-adv-x="733" 
d="M587 0h-133l-222 509l-84 -509h-128l126 709h137l218 -503l84 503h128zM606 852q-23 -23 -52 -41.5t-63 -18.5q-20 0 -37 6.5t-31 14t-27 14t-26 6.5q-18 0 -35 -10t-28 -23l-51 64q23 23 51.5 41.5t63.5 18.5q20 0 36.5 -6.5t30.5 -14.5t27 -14.5t27 -6.5
q17 0 34.5 11.5t28.5 22.5z" />
    <glyph glyph-name="Odieresis" unicode="&#xd6;" horiz-adv-x="671" 
d="M256 556q-23 -23 -40 -59t-28.5 -77t-17 -81.5t-5.5 -72.5q0 -35 9 -67t32 -56q39 -39 96 -39q38 0 64.5 13t47.5 34q23 23 40 59.5t28 77t16.5 81.5t5.5 73q0 35 -9 67t-32 56q-39 39 -96 39q-38 0 -64 -13.5t-47 -34.5zM110 61q-42 42 -58.5 96t-16.5 111
q0 45 7.5 95.5t23 99.5t39 93.5t55.5 76.5q42 42 94 65t115 23q54 0 103.5 -18t87.5 -56q42 -42 59 -96t17 -111q0 -45 -7.5 -95.5t-22.5 -99.5t-38.5 -93.5t-55.5 -76.5q-42 -42 -95.5 -65t-116.5 -23q-54 0 -103 18t-87 56zM357 791h-117l22 121h117zM563 791h-117l22 121
h117z" />
    <glyph glyph-name="Udieresis" unicode="&#xdc;" horiz-adv-x="694" 
d="M605 248q-10 -59 -34 -107t-61 -82.5t-86 -53t-109 -18.5q-57 0 -106 14.5t-84.5 44.5t-55.5 75.5t-20 106.5q0 33 6 69l72 412h131l-74 -422q-5 -28 -5 -49q0 -67 37 -100.5t102 -33.5q68 0 106.5 43t51.5 114l80 448h130zM370 791h-117l22 121h117zM576 791h-117
l22 121h117z" />
    <glyph glyph-name="aacute" unicode="&#xe1;" horiz-adv-x="590" 
d="M454 0h-101v59q-27 -41 -66 -56.5t-74 -15.5q-39 0 -72.5 13t-60.5 42q-32 34 -45.5 77.5t-13.5 88.5q0 33 6 68.5t17.5 69t29 64t40.5 54.5q32 32 71 50.5t84 18.5q51 0 89.5 -20t54.5 -51l23 58h110zM386 313q0 23 -5.5 43.5t-18.5 36.5q-11 15 -29.5 25t-47.5 10
q-23 0 -42 -11t-34 -26q-16 -16 -27.5 -38t-19 -46.5t-11 -50t-3.5 -47.5q0 -48 23 -82t75 -34q26 0 44.5 11.5t33.5 26.5q33 34 47.5 84.5t14.5 97.5zM225 581l-29 71l206 104l39 -99z" />
    <glyph glyph-name="agrave" unicode="&#xe0;" horiz-adv-x="590" 
d="M454 0h-101v59q-27 -41 -66 -56.5t-74 -15.5q-39 0 -72.5 13t-60.5 42q-32 34 -45.5 77.5t-13.5 88.5q0 33 6 68.5t17.5 69t29 64t40.5 54.5q32 32 71 50.5t84 18.5q51 0 89.5 -20t54.5 -51l23 58h110zM386 313q0 23 -5.5 43.5t-18.5 36.5q-11 15 -29.5 25t-47.5 10
q-23 0 -42 -11t-34 -26q-16 -16 -27.5 -38t-19 -46.5t-11 -50t-3.5 -47.5q0 -48 23 -82t75 -34q26 0 44.5 11.5t33.5 26.5q33 34 47.5 84.5t14.5 97.5zM403 566l-200 112l56 91l184 -138z" />
    <glyph glyph-name="acircumflex" unicode="&#xe2;" horiz-adv-x="590" 
d="M329 769h57l99 -133l-61 -51l-76 104l-115 -106l-53 53zM454 0h-101v59q-27 -41 -66 -56.5t-74 -15.5q-39 0 -72.5 13t-60.5 42q-32 34 -45.5 77.5t-13.5 88.5q0 33 6 68.5t17.5 69t29 64t40.5 54.5q32 32 71 50.5t84 18.5q51 0 89.5 -20t54.5 -51l23 58h110zM386 313
q0 23 -5.5 43.5t-18.5 36.5q-11 15 -29.5 25t-47.5 10q-23 0 -42 -11t-34 -26q-16 -16 -27.5 -38t-19 -46.5t-11 -50t-3.5 -47.5q0 -48 23 -82t75 -34q26 0 44.5 11.5t33.5 26.5q33 34 47.5 84.5t14.5 97.5z" />
    <glyph glyph-name="adieresis" unicode="&#xe4;" horiz-adv-x="590" 
d="M454 0h-101v59q-27 -41 -66 -56.5t-74 -15.5q-39 0 -72.5 13t-60.5 42q-32 34 -45.5 77.5t-13.5 88.5q0 33 6 68.5t17.5 69t29 64t40.5 54.5q32 32 71 50.5t84 18.5q51 0 89.5 -20t54.5 -51l23 58h110zM386 313q0 23 -5.5 43.5t-18.5 36.5q-11 15 -29.5 25t-47.5 10
q-23 0 -42 -11t-34 -26q-16 -16 -27.5 -38t-19 -46.5t-11 -50t-3.5 -47.5q0 -48 23 -82t75 -34q26 0 44.5 11.5t33.5 26.5q33 34 47.5 84.5t14.5 97.5zM292 601h-117l22 121h117zM498 601h-117l22 121h117z" />
    <glyph glyph-name="atilde" unicode="&#xe3;" horiz-adv-x="590" 
d="M500 668q-23 -23 -49 -37t-61 -14q-18 0 -34 5.5t-30 11.5t-27 11.5t-25 5.5q-18 0 -33.5 -6.5t-32.5 -20.5l-37 61q23 23 49.5 37.5t60.5 14.5q18 0 33.5 -5.5t29 -11.5t26.5 -11.5t26 -5.5q18 0 33.5 6t32.5 20zM454 0h-101v59q-27 -41 -66 -56.5t-74 -15.5
q-39 0 -72.5 13t-60.5 42q-32 34 -45.5 77.5t-13.5 88.5q0 33 6 68.5t17.5 69t29 64t40.5 54.5q32 32 71 50.5t84 18.5q51 0 89.5 -20t54.5 -51l23 58h110zM386 313q0 23 -5.5 43.5t-18.5 36.5q-11 15 -29.5 25t-47.5 10q-23 0 -42 -11t-34 -26q-16 -16 -27.5 -38t-19 -46.5
t-11 -50t-3.5 -47.5q0 -48 23 -82t75 -34q26 0 44.5 11.5t33.5 26.5q33 34 47.5 84.5t14.5 97.5z" />
    <glyph glyph-name="aring" unicode="&#xe5;" horiz-adv-x="590" 
d="M454 0h-101v59q-27 -41 -66 -56.5t-74 -15.5q-39 0 -72.5 13t-60.5 42q-32 34 -45.5 77.5t-13.5 88.5q0 33 6 68.5t17.5 69t29 64t40.5 54.5q32 32 71 50.5t84 18.5q51 0 89.5 -20t54.5 -51l23 58h110zM386 313q0 23 -5.5 43.5t-18.5 36.5q-11 15 -29.5 25t-47.5 10
q-23 0 -42 -11t-34 -26q-16 -16 -27.5 -38t-19 -46.5t-11 -50t-3.5 -47.5q0 -48 23 -82t75 -34q26 0 44.5 11.5t33.5 26.5q33 34 47.5 84.5t14.5 97.5zM379 710q0 22 -15.5 37t-37.5 15t-37 -15t-15 -37t15 -37.5t37 -15.5t37.5 15.5t15.5 37.5zM448 710q0 -25 -9.5 -47.5
t-26 -39t-38.5 -26t-48 -9.5q-25 0 -47.5 9.5t-39 26t-26 39t-9.5 47.5q0 26 9.5 48t26 38t39 25.5t47.5 9.5q26 0 48 -9.5t38.5 -25.5t26 -38t9.5 -48z" />
    <glyph glyph-name="ccedilla" unicode="&#xe7;" horiz-adv-x="529" 
d="M491 332q0 -2 -0.5 -3.5t-0.5 -3.5h-123v8q0 15 -3.5 30t-11.5 27q-11 16 -27 25.5t-43 9.5q-26 0 -41.5 -8t-29.5 -19q-18 -15 -30 -37t-20 -47.5t-11.5 -51.5t-3.5 -49t5.5 -44t17 -37.5t30 -26.5t44.5 -10q35 0 63.5 21t36.5 55h123q-8 -42 -29.5 -76t-52.5 -58
t-69.5 -37t-80.5 -13q-58 0 -105.5 26.5t-75.5 74.5q-16 27 -24 62t-8 71q0 66 23 132t71 112q29 28 73.5 48t97.5 20t92.5 -17t65.5 -48q22 -26 34.5 -59.5t12.5 -76.5zM161 -240l-95 49l109 150h97z" />
    <glyph glyph-name="eacute" unicode="&#xe9;" horiz-adv-x="557" 
d="M392 326q0 20 -6.5 40t-20.5 36q-13 14 -32 22t-45 8q-24 0 -46 -9.5t-36 -21.5q-20 -17 -32.5 -40t-20.5 -49h238q0 4 0.5 7t0.5 7zM510 303q0 -31 -6 -64q-1 -5 -2 -9t-2 -9h-360q0 -24 3 -46.5t17 -43.5q15 -22 38.5 -32.5t48.5 -10.5q34 0 61.5 14.5t40.5 45.5h120
q-9 -29 -24 -53.5t-38 -46.5q-29 -28 -71 -44.5t-95 -16.5q-48 0 -87.5 17t-68.5 46q-32 32 -48 78t-16 89q0 34 6 67q9 52 32.5 98t61.5 82q29 28 75 48.5t102 20.5q66 0 114.5 -31t71.5 -79q8 -17 13 -31.5t8 -28.5t4 -28.5t1 -31.5zM242 581l-29 71l206 104l39 -99z" />
    <glyph glyph-name="egrave" unicode="&#xe8;" horiz-adv-x="557" 
d="M417 563l-200 112l56 91l184 -138zM392 326q0 20 -6.5 40t-20.5 36q-13 14 -32 22t-45 8q-24 0 -46 -9.5t-36 -21.5q-20 -17 -32.5 -40t-20.5 -49h238q0 4 0.5 7t0.5 7zM510 303q0 -31 -6 -64q-1 -5 -2 -9t-2 -9h-360q0 -24 3 -46.5t17 -43.5q15 -22 38.5 -32.5
t48.5 -10.5q34 0 61.5 14.5t40.5 45.5h120q-9 -29 -24 -53.5t-38 -46.5q-29 -28 -71 -44.5t-95 -16.5q-48 0 -87.5 17t-68.5 46q-32 32 -48 78t-16 89q0 34 6 67q9 52 32.5 98t61.5 82q29 28 75 48.5t102 20.5q66 0 114.5 -31t71.5 -79q8 -17 13 -31.5t8 -28.5t4 -28.5
t1 -31.5z" />
    <glyph glyph-name="ecircumflex" unicode="&#xea;" horiz-adv-x="557" 
d="M392 326q0 20 -6.5 40t-20.5 36q-13 14 -32 22t-45 8q-24 0 -46 -9.5t-36 -21.5q-20 -17 -32.5 -40t-20.5 -49h238q0 4 0.5 7t0.5 7zM510 303q0 -31 -6 -64q-1 -5 -2 -9t-2 -9h-360q0 -24 3 -46.5t17 -43.5q15 -22 38.5 -32.5t48.5 -10.5q34 0 61.5 14.5t40.5 45.5h120
q-9 -29 -24 -53.5t-38 -46.5q-29 -28 -71 -44.5t-95 -16.5q-48 0 -87.5 17t-68.5 46q-32 32 -48 78t-16 89q0 34 6 67q9 52 32.5 98t61.5 82q29 28 75 48.5t102 20.5q66 0 114.5 -31t71.5 -79q8 -17 13 -31.5t8 -28.5t4 -28.5t1 -31.5zM429 568l-88 119l-129 -117l-56 60
l162 144h61l117 -154z" />
    <glyph glyph-name="edieresis" unicode="&#xeb;" horiz-adv-x="557" 
d="M392 326q0 20 -6.5 40t-20.5 36q-13 14 -32 22t-45 8q-24 0 -46 -9.5t-36 -21.5q-20 -17 -32.5 -40t-20.5 -49h238q0 4 0.5 7t0.5 7zM510 303q0 -31 -6 -64q-1 -5 -2 -9t-2 -9h-360q0 -24 3 -46.5t17 -43.5q15 -22 38.5 -32.5t48.5 -10.5q34 0 61.5 14.5t40.5 45.5h120
q-9 -29 -24 -53.5t-38 -46.5q-29 -28 -71 -44.5t-95 -16.5q-48 0 -87.5 17t-68.5 46q-32 32 -48 78t-16 89q0 34 6 67q9 52 32.5 98t61.5 82q29 28 75 48.5t102 20.5q66 0 114.5 -31t71.5 -79q8 -17 13 -31.5t8 -28.5t4 -28.5t1 -31.5zM282 601h-117l22 121h117zM488 601
h-117l22 121h117z" />
    <glyph glyph-name="iacute" unicode="&#xed;" horiz-adv-x="278" 
d="M101 590l-26 64l186 93l35 -89zM143 0h-128l91 520h128z" />
    <glyph glyph-name="igrave" unicode="&#xec;" horiz-adv-x="278" 
d="M256 575l-180 101l50 82l166 -124zM143 0h-128l91 520h128z" />
    <glyph glyph-name="icircumflex" unicode="&#xee;" horiz-adv-x="278" 
d="M275 567l-80 107l-116 -105l-50 54l146 130h55l105 -139zM143 0h-128l91 520h128z" />
    <glyph glyph-name="idieresis" unicode="&#xef;" horiz-adv-x="278" 
d="M146 607h-106l20 109h105zM331 607h-105l19 109h106zM143 0h-128l91 520h128z" />
    <glyph glyph-name="ntilde" unicode="&#xf1;" horiz-adv-x="590" 
d="M524 385q0 -25 -5 -53l-59 -332h-125l56 315q3 17 3 32q0 31 -15.5 50.5t-54.5 19.5q-29 0 -55.5 -20t-43.5 -46q-14 -21 -25.5 -54.5t-19.5 -75.5l-39 -221h-126l92 520h103v-63q33 38 76.5 57t84.5 19q38 0 67 -11.5t49 -31.5q21 -20 29 -48t8 -57zM513 672
q-23 -23 -51 -41t-61 -18q-20 0 -36.5 6.5t-30.5 14t-27 13.5t-25 6q-17 0 -33.5 -9.5t-28.5 -22.5l-50 63q23 23 51 41t62 18q20 0 36 -6.5t29.5 -14t26.5 -14t27 -6.5q16 0 33 11t28 22z" />
    <glyph glyph-name="oacute" unicode="&#xf3;" horiz-adv-x="560" 
d="M209 396q-18 -15 -30.5 -38t-20 -48.5t-10.5 -52.5t-3 -50q0 -20 4 -37.5t15 -33.5q14 -20 35 -30t45 -10q23 0 40.5 8.5t31.5 19.5q18 15 30.5 38t20 48.5t10.5 52.5t3 50q0 20 -4 37.5t-15 33.5q-14 20 -35 30t-45 10q-23 0 -40.5 -8.5t-31.5 -19.5zM89 43
q-35 33 -51.5 77t-16.5 92q0 70 22 137.5t74 117.5q29 28 73 47t97 19q41 0 81 -13.5t71 -42.5q35 -33 51 -77t16 -92q0 -70 -22 -137.5t-74 -117.5q-29 -28 -74 -47t-98 -19q-41 0 -79.5 13.5t-69.5 42.5zM250 581l-28 71l205 104l39 -99z" />
    <glyph glyph-name="ograve" unicode="&#xf2;" horiz-adv-x="560" 
d="M408 566l-200 112l56 91l184 -138zM209 396q-18 -15 -30.5 -38t-20 -48.5t-10.5 -52.5t-3 -50q0 -20 4 -37.5t15 -33.5q14 -20 35 -30t45 -10q23 0 40.5 8.5t31.5 19.5q18 15 30.5 38t20 48.5t10.5 52.5t3 50q0 20 -4 37.5t-15 33.5q-14 20 -35 30t-45 10
q-23 0 -40.5 -8.5t-31.5 -19.5zM89 43q-35 33 -51.5 77t-16.5 92q0 70 22 137.5t74 117.5q29 28 73 47t97 19q41 0 81 -13.5t71 -42.5q35 -33 51 -77t16 -92q0 -70 -22 -137.5t-74 -117.5q-29 -28 -74 -47t-98 -19q-41 0 -79.5 13.5t-69.5 42.5z" />
    <glyph glyph-name="ocircumflex" unicode="&#xf4;" horiz-adv-x="560" 
d="M209 396q-18 -15 -30.5 -38t-20 -48.5t-10.5 -52.5t-3 -50q0 -20 4 -37.5t15 -33.5q14 -20 35 -30t45 -10q23 0 40.5 8.5t31.5 19.5q18 15 30.5 38t20 48.5t10.5 52.5t3 50q0 20 -4 37.5t-15 33.5q-14 20 -35 30t-45 10q-23 0 -40.5 -8.5t-31.5 -19.5zM89 43
q-35 33 -51.5 77t-16.5 92q0 70 22 137.5t74 117.5q29 28 73 47t97 19q41 0 81 -13.5t71 -42.5q35 -33 51 -77t16 -92q0 -70 -22 -137.5t-74 -117.5q-29 -28 -74 -47t-98 -19q-41 0 -79.5 13.5t-69.5 42.5zM419 568l-88 119l-129 -117l-56 60l162 144h61l117 -154z" />
    <glyph glyph-name="odieresis" unicode="&#xf6;" horiz-adv-x="560" 
d="M209 396q-18 -15 -30.5 -38t-20 -48.5t-10.5 -52.5t-3 -50q0 -20 4 -37.5t15 -33.5q14 -20 35 -30t45 -10q23 0 40.5 8.5t31.5 19.5q18 15 30.5 38t20 48.5t10.5 52.5t3 50q0 20 -4 37.5t-15 33.5q-14 20 -35 30t-45 10q-23 0 -40.5 -8.5t-31.5 -19.5zM89 43
q-35 33 -51.5 77t-16.5 92q0 70 22 137.5t74 117.5q29 28 73 47t97 19q41 0 81 -13.5t71 -42.5q35 -33 51 -77t16 -92q0 -70 -22 -137.5t-74 -117.5q-29 -28 -74 -47t-98 -19q-41 0 -79.5 13.5t-69.5 42.5zM273 601h-117l22 121h117zM479 601h-117l22 121h117z" />
    <glyph glyph-name="otilde" unicode="&#xf5;" horiz-adv-x="560" 
d="M481 663q-23 -23 -49 -37t-61 -14q-18 0 -34 5t-29.5 11.5t-26.5 11.5t-25 5q-35 0 -67 -26l-36 60q23 23 49 38t60 15q18 0 33.5 -5.5t29.5 -12t27 -12t26 -5.5q18 0 33 6.5t32 20.5zM209 396q-18 -15 -30.5 -38t-20 -48.5t-10.5 -52.5t-3 -50q0 -20 4 -37.5t15 -33.5
q14 -20 35 -30t45 -10q23 0 40.5 8.5t31.5 19.5q18 15 30.5 38t20 48.5t10.5 52.5t3 50q0 20 -4 37.5t-15 33.5q-14 20 -35 30t-45 10q-23 0 -40.5 -8.5t-31.5 -19.5zM89 43q-35 33 -51.5 77t-16.5 92q0 70 22 137.5t74 117.5q29 28 73 47t97 19q41 0 81 -13.5t71 -42.5
q35 -33 51 -77t16 -92q0 -70 -22 -137.5t-74 -117.5q-29 -28 -74 -47t-98 -19q-41 0 -79.5 13.5t-69.5 42.5z" />
    <glyph glyph-name="uacute" unicode="&#xfa;" horiz-adv-x="576" 
d="M93 520h125l-55 -315q-3 -16 -3 -32t4 -30t13 -23t21 -13.5t32 -4.5q29 0 53.5 19.5t41.5 45.5q14 21 24 55.5t18 76.5l39 221h126l-91 -520h-103v63q-32 -42 -71 -59t-80 -17q-39 0 -69 13.5t-50 35.5q-32 35 -36 85q-2 16 -1.5 32.5t3.5 34.5zM235 581l-29 71l206 104
l39 -99z" />
    <glyph glyph-name="ugrave" unicode="&#xf9;" horiz-adv-x="576" 
d="M93 520h125l-55 -315q-3 -16 -3 -32t4 -30t13 -23t21 -13.5t32 -4.5q29 0 53.5 19.5t41.5 45.5q14 21 24 55.5t18 76.5l39 221h126l-91 -520h-103v63q-32 -42 -71 -59t-80 -17q-39 0 -69 13.5t-50 35.5q-32 35 -36 85q-2 16 -1.5 32.5t3.5 34.5zM398 566l-200 112l56 91
l184 -138z" />
    <glyph glyph-name="ucircumflex" unicode="&#xfb;" horiz-adv-x="576" 
d="M93 520h125l-55 -315q-3 -16 -3 -32t4 -30t13 -23t21 -13.5t32 -4.5q29 0 53.5 19.5t41.5 45.5q14 21 24 55.5t18 76.5l39 221h126l-91 -520h-103v63q-32 -42 -71 -59t-80 -17q-39 0 -69 13.5t-50 35.5q-32 35 -36 85q-2 16 -1.5 32.5t3.5 34.5zM428 568l-88 119
l-129 -117l-56 60l162 144h61l117 -154z" />
    <glyph glyph-name="udieresis" unicode="&#xfc;" horiz-adv-x="576" 
d="M93 520h125l-55 -315q-3 -16 -3 -32t4 -30t13 -23t21 -13.5t32 -4.5q29 0 53.5 19.5t41.5 45.5q14 21 24 55.5t18 76.5l39 221h126l-91 -520h-103v63q-32 -42 -71 -59t-80 -17q-39 0 -69 13.5t-50 35.5q-32 35 -36 85q-2 16 -1.5 32.5t3.5 34.5zM277 601h-117l22 121h117
zM483 601h-117l22 121h117z" />
    <glyph glyph-name="dagger" unicode="&#x2020;" horiz-adv-x="560" 
d="M348 415l-95 -540h-114l95 540h-184l19 105h184l33 189h114l-33 -189h184l-19 -105h-184z" />
    <glyph glyph-name="degree" unicode="&#xb0;" horiz-adv-x="444" 
d="M329 555q0 32 -22.5 54t-54.5 22t-53.5 -22t-21.5 -54q0 -33 21.5 -55.5t53.5 -22.5t54.5 22.5t22.5 55.5zM427 555q0 -38 -14 -69.5t-38 -53.5t-55.5 -34t-67.5 -12t-67 13t-54 35.5t-36.5 53.5t-13.5 67q0 35 11.5 65t33.5 53t54 36t72 13q39 0 71 -12.5t55 -35t36 -53
t13 -66.5z" />
    <glyph glyph-name="cent" unicode="&#xa2;" 
d="M299 517q-13 -4 -22.5 -9.5t-18.5 -13.5q-18 -15 -30 -37t-20 -47.5t-11.5 -51.5t-3.5 -49q0 -34 12 -63t38 -44zM538 428q0 -2 -0.5 -3.5t-0.5 -3.5h-123v8q0 15 -3.5 30t-11.5 27q-14 21 -38 30l-58 -324q31 4 55.5 24.5t31.5 50.5h123q-8 -41 -29 -75t-51.5 -58
t-68.5 -37.5t-80 -13.5l-15 -83h-62l16 90q-39 11 -71 35t-52 59q-16 27 -24 62t-8 71q0 66 23 132t71 112q27 26 68 45.5t89 22.5l14 80h62l-15 -84q35 -6 63 -22t48 -39q22 -26 34.5 -59.5t12.5 -76.5z" />
    <glyph glyph-name="sterling" unicode="&#xa3;" horiz-adv-x="573" 
d="M529 192q-17 -93 -73.5 -142.5t-151.5 -49.5h-330l20 110q76 0 89 74q6 32 11.5 65t11.5 65h-75l18 103h75l16 91q8 45 26 82t46.5 64t68 41.5t90.5 14.5q38 0 70 -11.5t55.5 -31.5t36.5 -48.5t13 -62.5q0 -18 -3 -36h-121q1 2 1 6v11q0 30 -16.5 47.5t-50.5 17.5
q-40 0 -61 -26t-28 -62q-5 -24 -8.5 -48.5t-8.5 -48.5h143l-18 -103h-143l-23 -131q-4 -21 -17.5 -42.5t-36.5 -26.5l-1 -2h165q39 0 61 21.5t29 58.5h120z" />
    <glyph glyph-name="section" unicode="&#xa7;" horiz-adv-x="547" 
d="M381 160q0 31 -18 53l-134 164q-24 -11 -40.5 -27.5t-16.5 -45.5q0 -14 4 -27t13 -24l135 -164q23 11 40 27t17 44zM344 705q38 0 71.5 -12t58.5 -34.5t39 -54.5t14 -73q0 -4 -0.5 -8t-0.5 -8h-112q1 5 1.5 9t0.5 9q0 37 -22 55t-57 18q-32 0 -53.5 -19t-21.5 -51
q0 -17 6.5 -31t16.5 -26l163 -198q20 -25 32 -55t12 -62q0 -57 -31.5 -92t-80.5 -58q11 -20 17.5 -40t6.5 -43q0 -35 -13.5 -63.5t-36.5 -51.5q-27 -27 -65 -41t-83 -14q-39 0 -71.5 12.5t-56.5 35.5t-37.5 56t-13.5 74v13h111q-1 -5 -1.5 -9t-0.5 -9q0 -37 22.5 -56
t57.5 -19q31 0 53 19t22 51q0 17 -6.5 31t-17.5 27l-163 198q-42 51 -42 117q0 54 30 90t80 59q-24 38 -24 85q0 33 13 62.5t34 50.5q29 28 68 42t81 14z" />
    <glyph glyph-name="bullet" unicode="&#x2022;" horiz-adv-x="430" 
d="M343 292q0 -29 -11 -55t-30 -45t-45 -30t-55 -11t-55 11t-45 30t-30 45t-11 55t11 55t30 45t45 30t55 11t55 -11t45 -30t30 -45t11 -55z" />
    <glyph glyph-name="paragraph" unicode="&#xb6;" horiz-adv-x="671" 
d="M587 612l-130 -737h-99l130 737h-98l-130 -737h-99l77 436q-36 2 -66.5 15.5t-53 36.5t-35 54t-12.5 67q0 48 20 89t53 71t75.5 47.5t88.5 17.5h364l-17 -97h-68z" />
    <glyph glyph-name="germandbls" unicode="&#xdf;" horiz-adv-x="607" 
d="M565 555q0 -28 -8.5 -54.5t-24.5 -48.5t-38.5 -38t-51.5 -22q26 -8 48 -24.5t38 -39t24.5 -49t8.5 -55.5q0 -50 -19 -95.5t-52 -75.5t-74.5 -47t-92.5 -17q-57 0 -112 19l19 108q18 -5 38 -8.5t39 -3.5q55 0 89 31q22 20 32 46t10 58q0 24 -9.5 43.5t-26 34t-38 22
t-45.5 7.5h-21l19 103h20q49 0 76 27q12 11 18.5 29t6.5 37q0 34 -21 57q-24 26 -63 26q-46 0 -72 -31.5t-34 -79.5l-91 -514h-123l73 417h-83l17 103h84l4 21q9 47 30.5 82.5t52.5 60t69 37t81 12.5q44 0 83.5 -14.5t71.5 -45.5q23 -22 35.5 -52.5t12.5 -65.5z" />
    <glyph glyph-name="registered" unicode="&#xae;" horiz-adv-x="838" 
d="M474 422q0 20 -13 29t-31 9h-53v-79h53q20 0 32 10.5t12 30.5zM474 178l-49 120h-47v-120h-93v365h145q29 0 54 -8t44 -23.5t29.5 -38.5t10.5 -54q0 -32 -13.5 -60t-43.5 -43l60 -138h-97zM695 354q0 61 -20 112.5t-56.5 89t-87 59t-112.5 21.5q-61 0 -112 -21.5
t-87.5 -59t-56.5 -89t-20 -112.5t20 -113t56 -89.5t87 -58.5t113 -21q61 0 112 21.5t87.5 59t56.5 89.5t20 112zM789 354q0 -81 -27.5 -148.5t-77 -116t-117.5 -76t-148 -27.5q-81 0 -148.5 27.5t-117 76t-77 116t-27.5 148.5q0 80 28 147.5t77.5 116.5t117.5 76.5t147 27.5
q80 0 147.5 -27.5t117 -77t77.5 -116.5t28 -147z" />
    <glyph glyph-name="copyright" unicode="&#xa9;" horiz-adv-x="838" 
d="M597 301q-4 -32 -18 -59t-36.5 -47t-52.5 -31t-66 -11q-45 0 -80 16t-59 43t-36.5 63.5t-12.5 76.5q0 41 12.5 77t36.5 63t59 42.5t80 15.5q36 0 66 -11t52.5 -31t36.5 -47t18 -59h-102q-4 23 -22.5 40t-48.5 17q-22 0 -38 -9t-26.5 -24t-15.5 -34.5t-5 -39.5
q0 -47 21.5 -77.5t63.5 -30.5q30 0 48.5 17t22.5 40h102zM696 354q0 61 -20 112.5t-57 89t-87.5 59t-112.5 21.5q-61 0 -112 -21.5t-87.5 -59t-56.5 -89t-20 -112.5t20 -113t56 -89.5t87 -58.5t113 -21q61 0 112 21.5t87.5 59t57 89.5t20.5 112zM789 354q0 -81 -27.5 -148.5
t-77 -116t-117.5 -76t-148 -27.5q-81 0 -148.5 27.5t-117 76t-77 116t-27.5 148.5q0 80 28 147.5t77.5 116.5t117.5 76.5t147 27.5q80 0 147.5 -27.5t117 -77t77.5 -116.5t28 -147z" />
    <glyph glyph-name="trademark" unicode="&#x2122;" horiz-adv-x="855" 
d="M373 624h-110l-51 -296h-98l53 296h-110l15 85h316zM792 328h-96l47 257l-123 -247h-73l-37 251l-43 -261h-95l68 381h132l34 -241l118 241h135z" />
    <glyph glyph-name="acute" unicode="&#xb4;" horiz-adv-x="253" 
d="M80 581l-29 71l206 104l39 -99z" />
    <glyph glyph-name="dieresis" unicode="&#xa8;" horiz-adv-x="321" 
d="M158 601h-117l22 121h117zM364 601h-117l22 121h117z" />
    <glyph glyph-name="notequal" unicode="&#x2260;" horiz-adv-x="688" 
d="M260 129l-101 -131l-58 44l67 87h-79v99h155l77 100h-232v98h308l97 126l57 -45l-62 -81h110v-98h-186l-77 -100h263v-99h-339z" />
    <glyph glyph-name="AE" unicode="&#xc6;" horiz-adv-x="951" 
d="M948 592h-331l-30 -165h279l-21 -116h-279l-34 -194h340l-21 -117h-386h-83l32 180h-230l-111 -180h-147l449 709h594zM436 589l-179 -290h178l51 290h-50z" />
    <glyph glyph-name="Oslash" unicode="&#xd8;" horiz-adv-x="669" 
d="M503 442q0 22 -3.5 43.5t-11.5 40.5l-267 -397q34 -25 80 -25q38 0 64.5 13t47.5 34q23 23 40 59.5t28 77t16.5 81.5t5.5 73zM441 583q-33 21 -75 21q-38 0 -64 -13.5t-47 -34.5q-23 -23 -40 -59t-28.5 -77t-17 -81.5t-5.5 -72.5q0 -20 2.5 -39t9.5 -37zM635 440
q0 -45 -7.5 -95.5t-22.5 -99.5t-38.5 -93.5t-55.5 -76.5q-42 -42 -95.5 -65t-116.5 -23q-40 0 -77.5 10t-69.5 30l-55 -81l-61 36l62 91q-35 42 -49.5 91.5t-14.5 103.5q0 45 7.5 95.5t23 99.5t39 93.5t55.5 76.5q42 42 94 65t115 23q38 0 74 -9t68 -27l45 67l61 -36
l-51 -75q38 -42 54 -93.5t16 -107.5z" />
    <glyph glyph-name="infinity" unicode="&#x221e;" horiz-adv-x="717" 
d="M318 312q-26 0 -51 -7.5t-44.5 -22t-31.5 -36.5t-12 -51q0 -22 8.5 -38.5t23 -28t33.5 -17t39 -5.5h117l37 206h-119zM657 312h-103l-37 -206h103l-18 -106h-341q-40 0 -77.5 12.5t-66.5 36t-46.5 57t-17.5 75.5q0 67 39.5 118t100.5 74q-32 18 -51 53t-19 75
q0 38 15.5 75.5t44.5 64.5q38 37 89.5 52.5t111.5 15.5q23 0 50 -5t43 -10l-19 -104q-40 12 -85 12q-25 0 -47.5 -6.5t-40 -19.5t-28 -32.5t-10.5 -45.5q0 -21 9 -36t23.5 -24.5t32.5 -14.5t36 -5h107l19 104h117l-19 -104h103z" />
    <glyph glyph-name="plusminus" unicode="&#xb1;" horiz-adv-x="606" 
d="M49 0v106h508v-106h-508zM359 322v-160h-113v160h-197v105h197v160h113v-160h198v-105h-198z" />
    <glyph glyph-name="lessequal" unicode="&#x2264;" horiz-adv-x="795" 
d="M211 275l204 -204l-70 -70l-321 323l321 323l70 -69l-204 -205h540v-98h-540z" />
    <glyph glyph-name="greaterequal" unicode="&#x2265;" horiz-adv-x="795" 
d="M450 0l-70 70l204 204h-540v98h540l-204 205l70 69l321 -323z" />
    <glyph glyph-name="yen" unicode="&#xa5;" horiz-adv-x="567" 
d="M411 398h114l-13 -73h-170l-16 -90h170l-13 -73h-170l-29 -162h-128l29 162h-159l13 73h159l16 90h-159l13 73h106l-115 297h136l101 -271l192 271h140z" />
    <glyph glyph-name="mu" unicode="&#xb5;" horiz-adv-x="596" 
d="M396 0l-10 70q-19 -38 -58.5 -60.5t-89.5 -22.5q-15 0 -29 2t-27 9v-200h-124v375v112v235h124v-235v-86q0 -46 20.5 -72.5t70.5 -26.5q22 0 37.5 7.5t26.5 18.5q23 21 30.5 53t7.5 64v277h125v-520h-104z" />
    <glyph glyph-name="mu" unicode="&#x3bc;" horiz-adv-x="596" 
d="M396 0l-10 70q-19 -38 -58.5 -60.5t-89.5 -22.5q-15 0 -29 2t-27 9v-200h-124v375v112v235h124v-235v-86q0 -46 20.5 -72.5t70.5 -26.5q22 0 37.5 7.5t26.5 18.5q23 21 30.5 53t7.5 64v277h125v-520h-104z" />
    <glyph glyph-name="partialdiff" unicode="&#x2202;" 
d="M342 109h155l-19 -109h-403l19 109h122l77 431l-173 -111l25 143l193 123h108z" />
    <glyph glyph-name="summation" unicode="&#x2211;" horiz-adv-x="951" 
d="M57 -99v248h84v-162h670v162h83v-248h-837z" />
    <glyph glyph-name="product" unicode="&#x220f;" horiz-adv-x="930" 
d="M384 -293h-28l510 509v-27zM784 -293h-27l109 109v-28zM584 -293h-27l309 309v-27zM183 -293h-27l710 710v-28zM64 -212v28l802 801v-27zM64 -11v27l802 802v-28zM64 389v28l480 480h27zM64 189v27l681 681h27zM64 590v27l280 280h27zM64 790v28l79 79h28z" />
    <glyph glyph-name="pi" unicode="&#x3c0;" horiz-adv-x="634" 
d="M580 1l-33 -5.5t-34 -2.5q-72 0 -107.5 37t-35.5 108v266h-121v-406h-124v406h-76v101h520v-101h-75v-248q0 -26 10.5 -38t36.5 -12q8 0 21 1t18 1v-107z" />
    <glyph glyph-name="integral" unicode="&#x222b;" horiz-adv-x="628" 
d="M520 162l-382 382v-288h-99v453h457v-96h-289l382 -381z" />
    <glyph glyph-name="ordfeminine" unicode="&#xaa;" horiz-adv-x="473" 
d="M321 480l-99 -8q-22 -2 -39 -14.5t-17 -36.5q0 -23 16 -36.5t39 -13.5q45 0 72.5 23.5t27.5 67.5v18zM448 309q-12 -5 -21 -8t-26 -3q-31 0 -48 16.5t-19 39.5q-14 -24 -46 -41.5t-74 -17.5q-35 0 -61.5 10.5t-44 27.5t-26.5 40t-9 47q0 28 10 50t28 37t42 24t52 11
l116 9v24q0 28 -12.5 45t-53.5 17q-68 0 -71 -56h-92q2 33 15.5 57.5t35.5 40.5t50.5 23.5t61.5 7.5q51 0 90.5 -18t56.5 -63q8 -19 9.5 -39.5t1.5 -40.5v-148q0 -14 5.5 -19t17.5 -5q6 0 8 1t4 1v-70z" />
    <glyph glyph-name="ordmasculine" unicode="&#xba;" horiz-adv-x="473" 
d="M338 501q0 28 -4.5 55t-21.5 46q-10 11 -24.5 18t-34.5 7t-35 -7t-25 -18q-17 -19 -21 -46t-4 -55t4 -54.5t21 -45.5q10 -11 25 -18t35 -7t34.5 7t24.5 18q17 19 21.5 45.5t4.5 54.5zM434 501q0 -44 -10 -80t-33 -64q-20 -25 -56.5 -44t-81.5 -19t-82 19t-57 44
q-23 28 -33 64t-10 80t10.5 81.5t33.5 65.5q20 25 56.5 43t81.5 18t81 -18t56 -43q23 -28 33.5 -65.5t10.5 -81.5z" />
    <glyph glyph-name="ae" unicode="&#xe6;" horiz-adv-x="878" 
d="M280 219h-37t-37 -2q-34 -2 -59.5 -20.5t-25.5 -55.5q0 -26 18.5 -38.5t44.5 -12.5q31 0 55 10t42 27.5t29.5 41t16.5 50.5h-47zM714 325q0 21 -7 41.5t-21 36.5q-13 14 -32 22t-45 8q-24 0 -46 -9.5t-36 -21.5q-20 -17 -33 -40.5t-20 -49.5h239q0 3 0.5 6.5t0.5 6.5z
M831 303q0 -31 -6 -64q-1 -5 -2 -9t-2 -9h-361v-10q0 -22 4 -42t16 -38q15 -22 39 -33t49 -11q24 0 43 8t33 20q11 9 18.5 20t13.5 23h124q-23 -62 -70 -106q-29 -28 -72 -46.5t-96 -18.5q-28 0 -55.5 7t-52.5 21.5t-44.5 35.5t-31.5 48q-17 -33 -51.5 -60t-74.5 -40
q-18 -6 -37.5 -9t-48.5 -3q-33 0 -63.5 9.5t-54.5 28.5t-38 46t-14 62q0 43 18.5 74.5t47.5 53t66.5 33.5t74.5 15q18 2 42.5 2h46.5h51l8 45q1 5 1.5 9t0.5 8q0 27 -17 44.5t-52 17.5q-42 0 -68.5 -17.5t-35.5 -53.5h-121q11 44 33.5 76t55 52.5t72 30.5t82.5 10
q25 0 47.5 -5.5t41 -15.5t31.5 -22.5t19 -27.5q35 37 79 54t96 17q66 0 116 -31t73 -79q8 -17 13 -31.5t8 -28.5t4 -28.5t1 -31.5z" />
    <glyph glyph-name="oslash" unicode="&#xf8;" horiz-adv-x="560" 
d="M381 313q0 14 -1.5 26t-6.5 24l-172 -260q20 -9 43 -9t41 9t32 20q19 16 31 38.5t19.5 48.5t10.5 52.5t3 50.5zM328 415q-22 11 -47 11q-23 0 -41 -9t-32 -20q-19 -16 -31 -38.5t-19.5 -48.5t-10.5 -52.5t-3 -50.5q0 -14 2 -28t7 -27zM506 308q0 -70 -22 -137.5
t-74 -117.5q-29 -28 -74 -47t-98 -19q-26 0 -51.5 5.5t-48.5 16.5l-45 -68l-58 33l49 74q-32 33 -47.5 75.5t-15.5 88.5q0 70 22 137.5t74 117.5q29 28 73 47t97 19q26 0 52.5 -5.5t51.5 -17.5l41 62l58 -33l-45 -68q32 -32 46.5 -74.5t14.5 -88.5z" />
    <glyph glyph-name="questiondown" unicode="&#xbf;" horiz-adv-x="520" 
d="M235 503h140l-25 -140h-140zM-21 -41q0 18 3 36q9 53 39.5 87.5t69.5 60.5q22 15 40.5 27t33.5 26.5t25 33.5t16 47l5 24h124q-5 -26 -9 -52.5t-14 -50.5q-13 -32 -30.5 -53.5t-37 -37t-41 -27.5t-41.5 -27q-17 -11 -31.5 -28t-19.5 -41q-1 -5 -1 -8v-7q0 -19 8 -33.5
t21.5 -24t30.5 -14.5t36 -5q47 0 78 29q14 14 22 33.5t9 36.5h130q-7 -43 -20.5 -78.5t-45.5 -66.5q-35 -34 -81 -50.5t-100 -16.5q-43 0 -82.5 12t-70 35t-48.5 56.5t-18 76.5z" />
    <glyph glyph-name="exclamdown" unicode="&#xa1;" horiz-adv-x="339" 
d="M136 505h132l-24 -133h-132zM51 18l76 275h75l-20 -275l-40 -222h-131z" />
    <glyph glyph-name="logicalnot" unicode="&#xac;" horiz-adv-x="667" 
d="M439 84v167h-408v113h529l1 -280h-122z" />
    <glyph glyph-name="radical" unicode="&#x221a;" horiz-adv-x="695" 
d="M593 728l-254 -736h-106l-189 528h133l109 -321l211 633h209v-104h-113z" />
    <glyph glyph-name="florin" unicode="&#x192;" horiz-adv-x="530" 
d="M498 608q-11 2 -21.5 4t-21.5 2q-42 0 -63 -15.5t-31 -56.5q-5 -23 -9 -45.5t-8 -45.5h130v-112h-155l-62 -310q-14 -70 -58 -110.5t-117 -40.5q-42 0 -83 12v106q27 -6 55 -6q42 0 59 19t25 57l55 273h-94v112h117l24 119q14 69 61 112t119 43q20 0 39 -2.5t39 -5.5
v-109z" />
    <glyph glyph-name="approxequal" unicode="&#x2248;" horiz-adv-x="638" 
d="M579 157q-18 -19 -36 -36t-38 -30.5t-42.5 -21.5t-49.5 -8q-29 0 -55 9t-49 20q-12 5 -23 10.5t-22 10.5q-21 9 -40 9q-29 0 -52 -18t-42 -38l-71 84q18 19 36 36t38 30.5t42.5 21.5t49.5 8q28 0 53.5 -8.5t48.5 -19.5q12 -5 23 -10.5t22 -9.5t21 -6.5t20 -2.5
q29 0 51 17.5t42 37.5zM579 377q-18 -19 -36 -36.5t-38 -31t-42.5 -21.5t-49.5 -8q-29 0 -55 9.5t-49 20.5q-12 5 -23 10l-22 10q-23 10 -40 10q-29 0 -52 -18.5t-42 -38.5l-71 84q18 19 36 36.5t38 31t42.5 21.5t49.5 8q28 0 53.5 -9t48.5 -20q12 -5 23 -10t22 -9t21 -6.5
t20 -2.5q29 0 51 17.5t42 37.5z" />
    <glyph glyph-name="Delta" unicode="&#x394;" horiz-adv-x="648" 
d="M485 256v288l-382 -382l-69 70l382 381h-289v96h457v-453h-99z" />
    <glyph glyph-name="Delta" unicode="&#x2206;" horiz-adv-x="648" 
d="M485 256v288l-382 -382l-69 70l382 381h-289v96h457v-453h-99z" />
    <glyph glyph-name="guillemotleft" unicode="&#xab;" horiz-adv-x="585" 
d="M162 304l81 -203l-81 -41l-128 258l214 231l63 -60zM404 304l81 -203l-81 -41l-128 258l214 231l63 -60z" />
    <glyph glyph-name="guillemotright" unicode="&#xbb;" horiz-adv-x="582" 
d="M71 60l-65 58l150 182l-81 207l81 42l128 -261zM313 60l-65 58l150 182l-81 207l81 42l128 -261z" />
    <glyph glyph-name="ellipsis" unicode="&#x2026;" horiz-adv-x="997" 
d="M173 0h-145l26 146h145zM508 0h-145l26 146h145zM843 0h-145l26 146h145z" />
    <glyph glyph-name="uni00A0" unicode="&#xa0;" horiz-adv-x="207" 
 />
    <glyph glyph-name="Agrave" unicode="&#xc0;" horiz-adv-x="632" 
d="M479 757l-200 112l56 91l184 -138zM351 551l-155 -299h204zM441 0l-22 136h-282l-70 -136h-137l374 709h148l124 -709h-135z" />
    <glyph glyph-name="Atilde" unicode="&#xc3;" horiz-adv-x="632" 
d="M548 824q-23 -23 -49 -37t-61 -14q-18 0 -34 5t-29.5 11.5t-26.5 11.5t-25 5q-35 0 -67 -26l-36 61q23 23 49 37.5t60 14.5q18 0 33.5 -5.5t29.5 -11.5t27 -11.5t26 -5.5q18 0 33 6t32 20zM351 551l-155 -299h204zM441 0l-22 136h-282l-70 -136h-137l374 709h148
l124 -709h-135z" />
    <glyph glyph-name="Otilde" unicode="&#xd5;" horiz-adv-x="671" 
d="M575 831q-23 -23 -49 -37t-61 -14q-18 0 -34 5.5t-30 11.5t-27 11.5t-25 5.5q-18 0 -33.5 -6.5t-32.5 -20.5l-37 61q23 23 49.5 37.5t60.5 14.5q18 0 33.5 -5.5t29 -11.5t26.5 -11.5t26 -5.5q18 0 33.5 6t32.5 20zM256 556q-23 -23 -40 -59t-28.5 -77t-17 -81.5
t-5.5 -72.5q0 -35 9 -67t32 -56q39 -39 96 -39q38 0 64.5 13t47.5 34q23 23 40 59.5t28 77t16.5 81.5t5.5 73q0 35 -9 67t-32 56q-39 39 -96 39q-38 0 -64 -13.5t-47 -34.5zM110 61q-42 42 -58.5 96t-16.5 111q0 45 7.5 95.5t23 99.5t39 93.5t55.5 76.5q42 42 94 65t115 23
q54 0 103.5 -18t87.5 -56q42 -42 59 -96t17 -111q0 -45 -7.5 -95.5t-22.5 -99.5t-38.5 -93.5t-55.5 -76.5q-42 -42 -95.5 -65t-116.5 -23q-54 0 -103 18t-87 56z" />
    <glyph glyph-name="OE" unicode="&#x152;" horiz-adv-x="1023" 
d="M510 445q0 29 -6 55t-21 47q-20 28 -51 43t-64 15q-39 0 -61 -12t-43 -29q-25 -21 -44 -57t-31 -78t-18 -84.5t-6 -75.5q0 -32 8.5 -62t26 -53t44 -36.5t62.5 -13.5q28 0 55 10t50 28q26 21 44.5 58.5t30.5 81t18 87t6 76.5zM1016 592h-348l-30 -165h301l-21 -116h-301
l-34 -194h354l-21 -117h-479l8 45q-12 -14 -30 -25t-38.5 -18.5t-42 -11t-40.5 -3.5q-63 0 -111 21t-81 57.5t-50 87t-17 110.5q0 50 8 106t26 109t46.5 99.5t69.5 78.5t86.5 49t99.5 17q30 0 58 -6t52 -17.5t42 -27t27 -34.5l13 72h474z" />
    <glyph glyph-name="oe" unicode="&#x153;" horiz-adv-x="920" 
d="M384 313q0 20 -3.5 37.5t-14.5 33.5q-14 20 -35 30t-45 10q-23 0 -40 -8t-31 -19q-17 -14 -29 -37.5t-20 -50t-12 -53.5t-4 -49q0 -20 4 -37.5t15 -33.5q14 -20 35 -30t45 -10q23 0 40 8t31 19q18 15 30 38t19.5 49t11 53.5t3.5 49.5zM749 312v13q0 21 -6.5 41.5
t-20.5 36.5q-13 14 -32 22t-45 8q-24 0 -46 -9.5t-36 -21.5q-20 -17 -33 -40.5t-20 -49.5h239zM867 303q0 -31 -6 -64q-1 -5 -2 -9t-2 -9h-361v-10q0 -22 4 -42t16 -38q15 -22 39 -33t49 -11q24 0 43 8t33 20q11 9 18.5 20t13.5 23h124q-23 -62 -70 -106q-29 -28 -72 -46.5
t-96 -18.5q-51 0 -99 23t-76 68q-42 -51 -87 -71t-93 -20q-44 0 -84.5 15.5t-72.5 46.5q-32 32 -47.5 75t-15.5 88q0 69 24 138.5t74 117.5q29 28 73.5 46.5t97.5 18.5q24 0 48.5 -6t47 -17.5t41 -28t30.5 -38.5q43 52 95.5 71t97.5 19q66 0 116 -31t73 -79q8 -17 13 -31.5
t8 -28.5t4 -28.5t1 -31.5z" />
    <glyph glyph-name="endash" unicode="&#x2013;" horiz-adv-x="657" 
d="M580 252h-539l20 112h539z" />
    <glyph glyph-name="emdash" unicode="&#x2014;" horiz-adv-x="1147" 
d="M1070 252h-1029l19 111h1029z" />
    <glyph glyph-name="quotedblleft" unicode="&#x201c;" horiz-adv-x="481" 
d="M252 661q-21 -9 -35.5 -19.5t-24 -22.5t-15 -26.5t-8.5 -33.5h72l-26 -146h-143l24 135q5 30 14 56t24.5 47t39 38t56.5 30zM465 661q-21 -9 -35.5 -19.5t-24 -22.5t-15 -26.5t-8.5 -33.5h71l-26 -146h-144l24 135q5 30 14.5 56t25.5 47t39.5 38t56.5 30z" />
    <glyph glyph-name="quotedblright" unicode="&#x201d;" horiz-adv-x="461" 
d="M236 574q-5 -30 -14.5 -56t-25.5 -47t-39.5 -38t-56.5 -30l-22 58q42 19 59 42t24 60h-71l26 146h144zM447 574q-5 -30 -14 -56t-24.5 -47t-39 -38t-56.5 -30l-22 58q42 19 59 42t24 60h-72l26 146h143z" />
    <glyph glyph-name="quoteleft" unicode="&#x2018;" horiz-adv-x="265" 
d="M250 662q-21 -9 -35 -19.5t-23.5 -22.5t-15 -26.5t-8.5 -33.5h71l-25 -146h-144l23 135q5 30 14.5 56t25 47t39 38t56.5 30z" />
    <glyph glyph-name="quoteright" unicode="&#x2019;" horiz-adv-x="245" 
d="M234 573q-5 -30 -14.5 -56t-25.5 -47t-39.5 -38t-56.5 -30l-22 58q42 19 59 42t24 60h-72l26 147h145z" />
    <glyph glyph-name="divide" unicode="&#xf7;" horiz-adv-x="646" 
d="M256 30v139h137v-139h-137zM59 243v114h528v-114h-528zM256 436v139h137v-139h-137z" />
    <glyph glyph-name="lozenge" unicode="&#x25ca;" 
d="M233 552q-19 -22 -31 -51t-19 -61q-8 -38 -16.5 -78.5t-13.5 -81.5l259 251q-1 3 -2 5.5t-3 5.5q-12 23 -36 37t-52 14t-49.5 -12t-36.5 -29zM157 170q2 -4 3.5 -8t3.5 -8q12 -23 36 -37t52 -14t49.5 12t36.5 29q19 22 31 51t19 61q9 40 17.5 82.5t13.5 84.5zM72 73
q-25 35 -34 72.5t-10 84.5q-1 36 3.5 71.5t9.5 67.5q8 43 18.5 84.5t26 79t38 69.5t53.5 56q28 21 63 36t82 15q55 0 102 -22t76 -64q25 -35 35 -73t10 -84q0 -36 -5 -71.5t-10 -67.5q-7 -43 -18 -84.5t-26.5 -79t-38 -69.5t-53.5 -56q-28 -21 -63 -36t-82 -15
q-55 0 -101.5 22t-75.5 64z" />
    <glyph glyph-name="ydieresis" unicode="&#xff;" horiz-adv-x="528" 
d="M204 -112q-14 -26 -28.5 -44t-34.5 -32q-38 -29 -101 -29q-26 0 -57.5 10t-52.5 24l18 101q17 -11 40 -19t43 -8t35.5 9t27.5 30l41 71l-112 519h131l69 -373l194 373h136zM259 601h-117l22 121h117zM465 601h-117l22 121h117z" />
    <glyph glyph-name="Ydieresis" unicode="&#x178;" horiz-adv-x="590" 
d="M337 272l-48 -272h-130l48 272l-168 437h132l118 -313l230 313h144zM189 779l22 121h117l-22 -121h-117zM395 779l22 121h117l-22 -121h-117z" />
    <glyph glyph-name="fraction" unicode="&#x2044;" horiz-adv-x="585" 
d="M76 -20l-74 56l505 687l76 -53z" />
    <glyph glyph-name="Euro" unicode="&#x20ac;" horiz-adv-x="619" 
d="M586 526q-35 35 -73 52t-88 17q-30 0 -58 -9t-53 -30q-24 -20 -39 -46t-25 -55h291l-48 -73h-261q-2 -8 -4 -20q-4 -23 -6 -51h239l-48 -73h-189q3 -23 9 -42.5t17 -34.5q23 -33 55 -47t71 -14q40 0 78.5 12t64.5 32l36 -103q-38 -26 -84.5 -40.5t-97.5 -14.5
q-66 0 -122.5 23.5t-98.5 78.5q-25 34 -38 71.5t-18 78.5h-79l13 73h65q1 16 3 31.5t4 31.5l1 8h-61l13 73h66q16 54 44.5 102.5t78.5 86.5q41 32 88.5 48.5t101.5 16.5q64 0 116.5 -20.5t99.5 -65.5z" />
    <glyph glyph-name="guilsinglleft" unicode="&#x2039;" horiz-adv-x="335" 
d="M162 304l81 -203l-81 -41l-128 258l214 231l63 -60z" />
    <glyph glyph-name="guilsinglright" unicode="&#x203a;" horiz-adv-x="340" 
d="M71 60l-65 58l150 182l-81 207l81 42l128 -261z" />
    <glyph glyph-name="daggerdbl" unicode="&#x2021;" horiz-adv-x="560" 
d="M297 64l-34 -189h-114l34 189h-184l18 105h184l44 246h-184l18 105h184l34 189h114l-34 -189h184l-18 -105h-184l-44 -246h184l-18 -105h-184z" />
    <glyph glyph-name="periodcentered" unicode="&#xb7;" horiz-adv-x="313" 
d="M46 215l28 156h152l-28 -156h-152z" />
    <glyph glyph-name="quotesinglbase" unicode="&#x201a;" horiz-adv-x="285" 
d="M167 11q-10 -62 -40 -105t-98 -69l-22 59q43 19 60 42.5t24 61.5h-73l26 150h147z" />
    <glyph glyph-name="quotedblbase" unicode="&#x201e;" horiz-adv-x="502" 
d="M165 11q-10 -62 -40 -105t-98 -69l-22 59q43 19 60 42.5t24 61.5h-73l26 150h147zM382 11q-10 -62 -40 -105t-98 -69l-22 59q43 19 60 42.5t24 61.5h-73l26 150h147z" />
    <glyph glyph-name="perthousand" unicode="&#x2030;" horiz-adv-x="1200" 
d="M931 255q-15 -14 -23 -34.5t-13 -43.5q-2 -10 -2 -20.5v-19.5q0 -16 5 -28t13 -20t17 -13t26 -5q14 0 24.5 4.5t18.5 12.5q15 14 22.5 34.5t12.5 43.5q3 20 3 40q0 16 -5 28t-13 20t-17.5 13t-26.5 5q-14 0 -24 -4.5t-18 -12.5zM846 29q-23 22 -34.5 50t-11.5 60v23t2 24
q5 32 17 60.5t34 51.5q25 27 55.5 41.5t69.5 14.5q63 0 104 -40q23 -22 34 -50t11 -60v-23t-2 -24q-5 -32 -16.5 -60.5t-33.5 -51.5q-25 -27 -55.5 -41.5t-69.5 -14.5q-63 0 -104 40zM566 255q-15 -14 -23 -34.5t-13 -43.5q-2 -10 -2 -20.5v-19.5q0 -16 5 -28t13 -20t17 -13
t26 -5q14 0 24.5 4.5t18.5 12.5q15 14 22.5 34.5t12.5 43.5q3 20 3 40q0 16 -5 28t-13 20t-17.5 13t-26.5 5q-14 0 -24 -4.5t-18 -12.5zM481 29q-23 22 -34.5 50t-11.5 60v23t2 24q5 32 17 60.5t34 51.5q25 27 55.5 41.5t69.5 14.5q63 0 104 -40q23 -22 34 -50t11 -60v-23
t-2 -24q-5 -32 -16.5 -60.5t-33.5 -51.5q-25 -27 -55.5 -41.5t-69.5 -14.5q-63 0 -104 40zM214 620q-15 -14 -22.5 -34.5t-12.5 -43.5q-2 -10 -2.5 -20.5t-0.5 -19.5q0 -16 5 -28t13 -20t17.5 -13t26.5 -5q14 0 24.5 4.5t18.5 12.5q15 14 22.5 34.5t12.5 43.5q3 20 3 40
q0 16 -5 28t-13 20t-17.5 13t-26.5 5q-14 0 -24.5 -4.5t-18.5 -12.5zM129 394q-23 22 -34 50t-11 60v23t2 24q5 32 16.5 60.5t33.5 51.5q25 27 56 41.5t70 14.5q62 0 103 -40q23 -22 34.5 -50t11.5 -60v-23t-2 -24q-5 -32 -16.5 -60.5t-33.5 -51.5q-25 -27 -56 -41.5
t-70 -14.5q-63 0 -104 40zM138 -20l-64 56l626 687l67 -53z" />
    <glyph glyph-name="Acircumflex" unicode="&#xc2;" horiz-adv-x="632" 
d="M351 551l-155 -299h204zM441 0l-22 136h-282l-70 -136h-137l374 709h148l124 -709h-135zM489 769l-88 119l-129 -117l-56 60l162 144h61l117 -154z" />
    <glyph glyph-name="Ecircumflex" unicode="&#xca;" horiz-adv-x="628" 
d="M625 592h-370l-30 -165h327l-21 -116h-327l-34 -194h376l-21 -117h-505l126 709h500zM516 769l-88 119l-129 -117l-56 60l162 144h61l117 -154z" />
    <glyph glyph-name="Aacute" unicode="&#xc1;" horiz-adv-x="639" 
d="M351 551l-155 -299h204zM441 0l-22 136h-282l-70 -136h-137l374 709h148l124 -709h-135zM291 779l-29 71l206 104l39 -99z" />
    <glyph glyph-name="Edieresis" unicode="&#xcb;" horiz-adv-x="628" 
d="M625 592h-370l-30 -165h327l-21 -116h-327l-34 -194h376l-21 -117h-505l126 709h500zM365 791h-117l22 121h117zM571 791h-117l22 121h117z" />
    <glyph glyph-name="Egrave" unicode="&#xc8;" horiz-adv-x="628" 
d="M487 756l-200 112l56 91l184 -138zM625 592h-370l-30 -165h327l-21 -116h-327l-34 -194h376l-21 -117h-505l126 709h500z" />
    <glyph glyph-name="Iacute" unicode="&#xcd;" horiz-adv-x="297" 
d="M131 777l-29 71l206 104l39 -99zM152 0h-132l125 709h132z" />
    <glyph glyph-name="Icircumflex" unicode="&#xce;" horiz-adv-x="297" 
d="M327 769l-88 119l-129 -117l-56 60l162 144h61l117 -154zM152 0h-132l125 709h132z" />
    <glyph glyph-name="Idieresis" unicode="&#xcf;" horiz-adv-x="297" 
d="M180 791h-117l22 121h117zM386 791h-117l22 121h117zM152 0h-132l125 709h132z" />
    <glyph glyph-name="Igrave" unicode="&#xcc;" horiz-adv-x="297" 
d="M293 778l-180 101l50 82l166 -125zM152 0h-132l125 709h132z" />
    <glyph glyph-name="Oacute" unicode="&#xd3;" horiz-adv-x="671" 
d="M256 556q-23 -23 -40 -59t-28.5 -77t-17 -81.5t-5.5 -72.5q0 -35 9 -67t32 -56q39 -39 96 -39q38 0 64.5 13t47.5 34q23 23 40 59.5t28 77t16.5 81.5t5.5 73q0 35 -9 67t-32 56q-39 39 -96 39q-38 0 -64 -13.5t-47 -34.5zM110 61q-42 42 -58.5 96t-16.5 111
q0 45 7.5 95.5t23 99.5t39 93.5t55.5 76.5q42 42 94 65t115 23q54 0 103.5 -18t87.5 -56q42 -42 59 -96t17 -111q0 -45 -7.5 -95.5t-22.5 -99.5t-38.5 -93.5t-55.5 -76.5q-42 -42 -95.5 -65t-116.5 -23q-54 0 -103 18t-87 56zM319 779l-29 71l206 104l39 -99z" />
    <glyph glyph-name="Ocircumflex" unicode="&#xd4;" horiz-adv-x="671" 
d="M256 556q-23 -23 -40 -59t-28.5 -77t-17 -81.5t-5.5 -72.5q0 -35 9 -67t32 -56q39 -39 96 -39q38 0 64.5 13t47.5 34q23 23 40 59.5t28 77t16.5 81.5t5.5 73q0 35 -9 67t-32 56q-39 39 -96 39q-38 0 -64 -13.5t-47 -34.5zM110 61q-42 42 -58.5 96t-16.5 111
q0 45 7.5 95.5t23 99.5t39 93.5t55.5 76.5q42 42 94 65t115 23q54 0 103.5 -18t87.5 -56q42 -42 59 -96t17 -111q0 -45 -7.5 -95.5t-22.5 -99.5t-38.5 -93.5t-55.5 -76.5q-42 -42 -95.5 -65t-116.5 -23q-54 0 -103 18t-87 56zM504 769l-88 119l-129 -117l-56 60l162 144h61
l117 -154z" />
    <glyph glyph-name="Ograve" unicode="&#xd2;" horiz-adv-x="671" 
d="M487 767l-200 112l56 91l184 -138zM256 556q-23 -23 -40 -59t-28.5 -77t-17 -81.5t-5.5 -72.5q0 -35 9 -67t32 -56q39 -39 96 -39q38 0 64.5 13t47.5 34q23 23 40 59.5t28 77t16.5 81.5t5.5 73q0 35 -9 67t-32 56q-39 39 -96 39q-38 0 -64 -13.5t-47 -34.5zM110 61
q-42 42 -58.5 96t-16.5 111q0 45 7.5 95.5t23 99.5t39 93.5t55.5 76.5q42 42 94 65t115 23q54 0 103.5 -18t87.5 -56q42 -42 59 -96t17 -111q0 -45 -7.5 -95.5t-22.5 -99.5t-38.5 -93.5t-55.5 -76.5q-42 -42 -95.5 -65t-116.5 -23q-54 0 -103 18t-87 56z" />
    <glyph glyph-name="Uacute" unicode="&#xda;" horiz-adv-x="694" 
d="M605 248q-10 -59 -34 -107t-61 -82.5t-86 -53t-109 -18.5q-57 0 -106 14.5t-84.5 44.5t-55.5 75.5t-20 106.5q0 33 6 69l72 412h131l-74 -422q-5 -28 -5 -49q0 -67 37 -100.5t102 -33.5q68 0 106.5 43t51.5 114l80 448h130zM327 779l-29 71l206 104l39 -99z" />
    <glyph glyph-name="Ucircumflex" unicode="&#xdb;" horiz-adv-x="694" 
d="M605 248q-10 -59 -34 -107t-61 -82.5t-86 -53t-109 -18.5q-57 0 -106 14.5t-84.5 44.5t-55.5 75.5t-20 106.5q0 33 6 69l72 412h131l-74 -422q-5 -28 -5 -49q0 -67 37 -100.5t102 -33.5q68 0 106.5 43t51.5 114l80 448h130zM517 769l-88 119l-129 -117l-56 60l162 144h61
l117 -154z" />
    <glyph glyph-name="Ugrave" unicode="&#xd9;" horiz-adv-x="694" 
d="M482 767l-200 112l56 91l184 -138zM605 248q-10 -59 -34 -107t-61 -82.5t-86 -53t-109 -18.5q-57 0 -106 14.5t-84.5 44.5t-55.5 75.5t-20 106.5q0 33 6 69l72 412h131l-74 -422q-5 -28 -5 -49q0 -67 37 -100.5t102 -33.5q68 0 106.5 43t51.5 114l80 448h130z" />
    <glyph glyph-name="dotlessi" unicode="&#x131;" horiz-adv-x="283" 
d="M142 0h-128l92 520h128z" />
    <glyph glyph-name="circumflex" unicode="&#x2c6;" horiz-adv-x="363" 
d="M332 568l-88 119l-129 -117l-56 60l162 144h61l117 -154z" />
    <glyph glyph-name="tilde" unicode="&#x2dc;" horiz-adv-x="382" 
d="M400 668q-23 -23 -49 -37t-61 -14q-18 0 -34 5t-29.5 11.5t-26.5 11.5t-25 5q-35 0 -67 -26l-36 60q23 23 49 38t60 15q18 0 33.5 -5.5t29.5 -12t27 -12t26 -5.5q18 0 33 6.5t32 20.5z" />
    <glyph glyph-name="macron" unicode="&#xaf;" horiz-adv-x="303" 
d="M4 631v100h300v-100h-300z" />
    <glyph glyph-name="breve" unicode="&#x2d8;" horiz-adv-x="348" 
d="M345 767q-3 -39 -14.5 -71t-32.5 -55t-51.5 -36t-70.5 -13t-70 13t-51 36t-32.5 55t-14.5 71h94q5 -45 22.5 -64.5t51.5 -19.5t52 19.5t23 64.5h94z" />
    <glyph glyph-name="dotaccent" unicode="&#x2d9;" horiz-adv-x="263" 
d="M67 592v128h133v-128h-133z" />
    <glyph glyph-name="ring" unicode="&#x2da;" horiz-adv-x="246" 
d="M178 710q0 22 -15.5 37t-37.5 15t-37 -15t-15 -37t15 -37.5t37 -15.5t37.5 15.5t15.5 37.5zM247 710q0 -25 -9.5 -47.5t-26 -39t-38.5 -26t-48 -9.5q-25 0 -47.5 9.5t-39 26t-26 39t-9.5 47.5q0 26 9.5 48t26 38t39 25.5t47.5 9.5q26 0 48 -9.5t38.5 -25.5t26 -38
t9.5 -48z" />
    <glyph glyph-name="cedilla" unicode="&#xb8;" horiz-adv-x="196" 
d="M29 -230l-95 49l109 150h97z" />
    <glyph glyph-name="hungarumlaut" unicode="&#x2dd;" horiz-adv-x="508" 
d="M46 608l-42 65l185 144l59 -92zM301 608l-42 65l185 144l59 -92z" />
    <glyph glyph-name="ogonek" unicode="&#x2db;" horiz-adv-x="196" 
d="M83 -237l-80 210h102l88 -158z" />
    <glyph glyph-name="caron" unicode="&#x2c7;" horiz-adv-x="356" 
d="M189 776h-63l-110 148l68 56l84 -115l128 118l59 -59z" />
    <glyph glyph-name="Lslash" unicode="&#x141;" horiz-adv-x="550" 
d="M478 0h-458l49 274l-59 -33l-31 69l107 60l60 339h129l-46 -257l121 68l32 -70l-170 -95l-41 -233h329z" />
    <glyph glyph-name="lslash" unicode="&#x142;" horiz-adv-x="295" 
d="M205 394l-43 -239q-1 -5 -1 -8.5v-7.5q0 -17 9.5 -25.5t32.5 -8.5q8 0 12 0.5t12 2.5l-18 -107q-15 -4 -27.5 -5.5t-31.5 -1.5q-60 0 -89 32.5t-29 80.5q0 23 4 43l29 165l-49 -28l-31 69l97 55l55 311h126l-41 -231l73 42l32 -69z" />
    <glyph glyph-name="Scaron" unicode="&#x160;" horiz-adv-x="622" 
d="M468 497q0 29 -11.5 50t-30 35t-43 21t-50.5 7q-47 0 -85 -25q-19 -13 -31.5 -31.5t-12.5 -43.5q0 -16 5.5 -28t14 -20.5t18.5 -14t19 -7.5l147 -35q32 -7 61 -23.5t51 -40.5t34.5 -55.5t12.5 -69.5q0 -50 -18 -88.5t-49 -67.5q-40 -37 -95 -55t-115 -18q-63 0 -117.5 17
t-98.5 59q-32 31 -51 72t-19 84v16h133q0 -46 28 -83q24 -32 56.5 -42t74.5 -10q23 0 48 6t45 18.5t33 32t13 46.5q0 32 -19.5 52t-48.5 27l-150 36q-30 7 -56.5 23t-46.5 39t-31.5 52t-11.5 62q0 55 24 97t60 71q78 60 187 60q125 0 196 -71q30 -30 46.5 -67.5t16.5 -79.5
v-7h-133zM396 776h-63l-110 148l68 56l85 -115l128 118l58 -59z" />
    <glyph glyph-name="scaron" unicode="&#x161;" horiz-adv-x="512" 
d="M354 357v1q0 30 -15 48q-26 32 -83 32q-16 0 -34 -5t-30 -16q-21 -18 -21 -44q0 -23 16.5 -33t34.5 -15l107 -26q23 -5 43 -17t34 -25q19 -18 29.5 -42t10.5 -53q0 -84 -67 -134q-31 -23 -71 -32t-84 -9q-26 0 -53 4.5t-52 14t-46.5 24.5t-36.5 37q-14 20 -23.5 46
t-9.5 56v4h116q0 -18 6 -31.5t15 -24.5q14 -18 40.5 -25.5t53.5 -7.5q17 0 34 3.5t30.5 11.5t21.5 21t8 31t-11 30.5t-31 17.5l-108 26q-25 6 -49 16t-42 29q-17 18 -26.5 39t-9.5 51q0 43 20.5 77.5t54.5 57.5q56 38 138 38q53 0 100 -18.5t76 -60.5q14 -20 22.5 -43.5
t8.5 -46.5v-7h-117zM315 572h-57l-99 133l61 51l77 -104l115 106l52 -53z" />
    <glyph glyph-name="Yacute" unicode="&#xdd;" horiz-adv-x="590" 
d="M337 272l-48 -272h-130l48 272l-168 437h132l118 -313l230 313h144zM257 779l-29 71l206 104l39 -99z" />
    <glyph glyph-name="yacute" unicode="&#xfd;" horiz-adv-x="528" 
d="M204 -112q-14 -26 -28.5 -44t-34.5 -32q-38 -29 -101 -29q-26 0 -57.5 10t-52.5 24l18 101q17 -11 40 -19t43 -8t35.5 9t27.5 30l41 71l-112 519h131l69 -373l194 373h136zM206 578l-29 71l206 104l39 -99z" />
    <glyph glyph-name="Thorn" unicode="&#xde;" horiz-adv-x="592" 
d="M19 0l126 709h128l-22 -120h113q47 0 88 -14.5t71.5 -40.5t48 -63t17.5 -82q0 -63 -21 -110.5t-58.5 -80t-89.5 -48.5t-113 -16h-136l-24 -134h-128zM191 247h121q65 0 104.5 30.5t39.5 98.5q0 43 -27.5 71.5t-84.5 28.5h-113z" />
    <glyph glyph-name="thorn" unicode="&#xfe;" horiz-adv-x="595" 
d="M-23 -199l163 921h126l-38 -233q26 24 58.5 34.5t61.5 10.5q39 0 73.5 -13.5t61.5 -42.5q32 -34 45 -77t13 -88q0 -41 -8 -83.5t-25 -81.5t-43 -72t-62 -56q-23 -15 -51 -23.5t-60 -8.5q-51 0 -87.5 19.5t-56.5 48.5l-46 -255h-125zM175 212q0 -23 5 -45t18 -38
q11 -15 30 -25t48 -10q23 0 42.5 10.5t34.5 25.5q16 16 27 37.5t18.5 45.5t11 49t3.5 47q0 24 -6 46t-18 38.5t-30.5 26t-43.5 9.5q-26 0 -45 -10.5t-34 -25.5q-15 -16 -26.5 -38t-19 -46.5t-11.5 -49.5t-4 -47z" />
    <glyph glyph-name="Zcaron" unicode="&#x17d;" horiz-adv-x="614" 
d="M398 776h-63l-110 148l68 56l85 -115l128 118l58 -59zM616 582l-457 -465h386l-21 -117h-555l23 127l458 465h-370l21 117h538z" />
    <glyph glyph-name="zcaron" unicode="&#x17e;" horiz-adv-x="503" 
d="M309 572h-57l-99 133l61 51l77 -104l115 106l52 -53zM471 407l-317 -304h268l-18 -103h-424l20 110l321 307h-265l18 103h417z" />
    <glyph glyph-name="onehalf" unicode="&#xbd;" horiz-adv-x="908" 
d="M623 85h142l-15 -85h-286l13 71l176 131q14 10 27.5 24t13.5 33q0 12 -10 23.5t-30 11.5q-26 0 -41.5 -15t-20.5 -35h-93q17 63 60 96t112 33q24 0 45 -7.5t36.5 -21t25 -33t9.5 -43.5q0 -38 -20.5 -64t-47.5 -46zM163 346l45 257l-107 -67l18 100l117 73h82l-64 -363
h-91zM66 36l626 686l65 -52l-628 -689z" />
    <glyph glyph-name="onequarter" unicode="&#xbc;" horiz-adv-x="886" 
d="M168 345l45 257l-107 -67l18 100l117 73h82l-64 -363h-91zM81 36l626 686l65 -52l-628 -689zM729 72l-13 -71h-87l13 71h-185l16 94l165 207h95l-174 -222h97l15 82h86l-14 -82h48l-14 -79h-48z" />
    <glyph glyph-name="onesuperior" unicode="&#xb9;" horiz-adv-x="398" 
d="M163 345l45 257l-107 -67l18 100l117 73h82l-64 -363h-91z" />
    <glyph glyph-name="threequarters" unicode="&#xbe;" horiz-adv-x="923" 
d="M331 532q22 -8 35 -28t13 -42q0 -21 -9 -41t-23 -35q-27 -29 -62 -39.5t-73 -10.5q-32 0 -56.5 10t-41.5 26.5t-26 36.5t-9 41v9h87v-2q0 -24 17 -35t38 -11q24 0 46.5 12t22.5 40q0 11 -5.5 17.5t-13.5 9.5t-17 3.5t-17 0.5h-21l13 71q12 0 26 0.5t25.5 4t19.5 12.5
t8 27q0 19 -15.5 26t-30.5 7q-26 0 -44.5 -12t-26.5 -38h-85q16 61 61.5 92t107.5 31q23 0 45.5 -6t41.5 -20q16 -12 27.5 -29.5t11.5 -40.5q0 -30 -18 -54.5t-52 -32.5zM132 36l626 686l65 -52l-628 -689zM766 72l-13 -71h-87l13 71h-185l16 94l165 207h95l-174 -222h97
l15 82h86l-14 -82h48l-14 -79h-48z" />
    <glyph glyph-name="threesuperior" unicode="&#xb3;" horiz-adv-x="442" 
d="M327 532q22 -8 35 -28t13 -42q0 -21 -8.5 -41t-22.5 -35q-27 -29 -62 -39.5t-73 -10.5q-32 0 -56.5 10t-41.5 26.5t-26 36.5t-9 41v9h87v-2q0 -24 16.5 -35t37.5 -11q12 0 24.5 3t22.5 9t16.5 16t6.5 24q0 11 -5.5 17.5t-13.5 9.5t-17 3.5t-17 0.5h-21l12 71q12 0 26 0.5
t25.5 4t19.5 12.5t8 27q0 19 -15 26t-30 7q-26 0 -44.5 -12t-26.5 -38h-85q16 61 61.5 92t107.5 31q23 0 45.5 -6t41.5 -20q16 -12 27 -29.5t11 -40.5q0 -30 -18 -54.5t-52 -32.5z" />
    <glyph glyph-name="twosuperior" unicode="&#xb2;" horiz-adv-x="444" 
d="M234 427h142l-15 -85h-286l13 71l176 131q14 10 27.5 24t13.5 33q0 12 -10 23.5t-30 11.5q-26 0 -41.5 -15t-20.5 -35h-93q17 63 60 96t112 33q24 0 45 -7.5t36.5 -21t25 -33t9.5 -43.5q0 -38 -20.5 -64t-47.5 -46z" />
    <glyph glyph-name="brokenbar" unicode="&#xa6;" horiz-adv-x="287" 
d="M82 -50v319h123v-319h-123zM82 440v319h123v-319h-123z" />
    <glyph glyph-name="minus" unicode="&#x2212;" horiz-adv-x="657" 
d="M43 252v112h539v-112h-539z" />
    <glyph glyph-name="multiply" unicode="&#xd7;" horiz-adv-x="687" 
d="M343 225l-208 -208l-72 72l208 208l-208 208l72 72l208 -207l208 207l73 -72l-208 -208l208 -208l-73 -72z" />
    <glyph glyph-name="Omega" unicode="&#x3a9;" horiz-adv-x="838" 
d="M493 408q0 26 -14.5 39t-39.5 13h-52v-106h52q54 0 54 54zM590 408q0 -72 -41 -107t-110 -35h-51v-104h-100v386h151q32 0 59.5 -9.5t48 -27.5t32 -44t11.5 -59zM695 354q0 61 -20 112.5t-56.5 89t-87 59t-112.5 21.5q-61 0 -112 -21.5t-87 -59t-56 -89t-20 -112.5
t20 -112.5t56 -89t86.5 -58.5t112.5 -21q61 0 112 21.5t87.5 59t56.5 89t20 111.5zM788 354q0 -81 -27.5 -148t-76.5 -116t-117 -76t-148 -27q-81 0 -148.5 27t-116.5 76t-76.5 116t-27.5 148q0 80 28 147.5t77 116.5t117 76.5t147 27.5q80 0 147.5 -27.5t116.5 -77
t77 -116.5t28 -147z" />
    <glyph glyph-name="Omega" unicode="&#x2126;" horiz-adv-x="838" 
d="M493 408q0 26 -14.5 39t-39.5 13h-52v-106h52q54 0 54 54zM590 408q0 -72 -41 -107t-110 -35h-51v-104h-100v386h151q32 0 59.5 -9.5t48 -27.5t32 -44t11.5 -59zM695 354q0 61 -20 112.5t-56.5 89t-87 59t-112.5 21.5q-61 0 -112 -21.5t-87 -59t-56 -89t-20 -112.5
t20 -112.5t56 -89t86.5 -58.5t112.5 -21q61 0 112 21.5t87.5 59t56.5 89t20 111.5zM788 354q0 -81 -27.5 -148t-76.5 -116t-117 -76t-148 -27q-81 0 -148.5 27t-116.5 76t-76.5 116t-27.5 148q0 80 28 147.5t77 116.5t117 76.5t147 27.5q80 0 147.5 -27.5t116.5 -77
t77 -116.5t28 -147z" />
    <glyph glyph-name="apple" horiz-adv-x="588" 
d="M522 364q0 34 -21 55t-55 21h-79v79q0 34 -21.5 55.5t-55.5 21.5t-55 -21.5t-21 -55.5v-232h232q34 0 55 21.5t21 55.5zM539 364q0 -41 -26 -67.5t-67 -26.5h-72q17 -23 17 -54q0 -41 -26 -67t-67 -26h-249v248q0 41 26 67.5t67 26.5q30 0 55 -17v71q0 41 26 67.5
t67 26.5t67 -26.5t26 -67.5v-62h63q41 0 67 -26.5t26 -66.5z" />
    <glyph glyph-name="currency" unicode="&#xa4;" horiz-adv-x="569" 
d="M409 254q0 27 -8.5 50t-24.5 40t-38.5 26.5t-51.5 9.5q-63 0 -94 -35t-31 -91q0 -25 8.5 -48t24.5 -40.5t39 -28t53 -10.5q60 0 91.5 36t31.5 91zM477 -20l-70 76q-30 -17 -59.5 -25t-61.5 -8t-62 8t-61 25l-69 -76l-87 84l79 67q-36 63 -36 123t36 123l-79 63l88 87
l67 -75q31 17 61.5 24.5t62.5 7.5t61 -7.5t60 -24.5l69 75l87 -87l-78 -63q36 -63 36 -123q0 -61 -36 -123l78 -67z" />
    <glyph glyph-name="eth" unicode="&#xf0;" horiz-adv-x="560" 
d="M380 313q0 20 -4 37.5t-15 33.5q-14 20 -35 30t-45 10q-23 0 -40.5 -8.5t-31.5 -19.5q-18 -15 -30.5 -38t-20 -48.5t-10.5 -52.5t-3 -50q0 -20 4 -37.5t15 -33.5q14 -20 35 -30t45 -10q23 0 40.5 8.5t31.5 19.5q18 15 30.5 38t20 48.5t10.5 52.5t3 50zM506 308
q0 -70 -22 -137.5t-74 -117.5q-29 -28 -74 -47t-98 -19q-41 0 -79.5 13.5t-69.5 42.5q-35 33 -51.5 77t-16.5 92q0 70 22 137.5t74 117.5q29 28 73 47t97 19h12t12 -1l-22 51h-113l12 67h74l-28 72h120l29 -72h98l-12 -67h-58l68 -159q13 -29 20 -56.5t7 -59.5z" />
    <glyph glyph-name="Eth" unicode="&#xd0;" horiz-adv-x="680" 
d="M518 442q0 28 -6 52.5t-20 44.5q-18 26 -51 40t-75 14h-112l-32 -183h131l-15 -84h-131l-37 -210h140q42 0 71 12t50 34t37 57.5t27.5 75.5t17 79t5.5 68zM645 451q0 -42 -7 -96t-23.5 -108.5t-44.5 -103.5t-69 -82q-79 -61 -205 -61h-276l57 326h-62l15 84h62l53 299
h238q60 0 117.5 -22.5t94.5 -72.5q28 -38 39 -78t11 -85z" />
  </font>
</defs>
</svg>
