<?xml version="1.0" encoding="utf-8"?>
<!-- Generator: Adobe Illustrator 16.0.0, SVG Export Plug-In . SVG Version: 6.00 Build 0)  -->
<!DOCTYPE svg PUBLIC "-//W3C//DTD SVG 1.1//EN" "http://www.w3.org/Graphics/SVG/1.1/DTD/svg11.dtd">
<svg version="1.1" id="Layer_1" xmlns="http://www.w3.org/2000/svg" xmlns:xlink="http://www.w3.org/1999/xlink" x="0px" y="0px"
	 width="29.57px" height="35px" viewBox="0 0 29.57 35" enable-background="new 0 0 29.57 35" xml:space="preserve">
<g>
	<path fill="#4EC0B0" d="M29.539,14.705c0-8.149-6.605-14.753-14.753-14.753c-8.15,0-14.754,6.604-14.754,14.753
		c0,4.639,2.146,8.775,5.497,11.48l9.257,8.777l9.256-8.777C27.394,23.479,29.539,19.344,29.539,14.705z"/>
	<circle fill="#ECF7F7" cx="14.785" cy="14.911" r="11.642"/>
	<circle fill="#3EA896" cx="15.028" cy="7.652" r="0.645"/>
	<path fill="#3EA896" d="M19.648,7.824c-0.091-0.492-0.503-0.873-1.021-0.873c-0.125,0-0.233,0.039-0.342,0.08
		c-0.098-0.302-0.369-0.524-0.705-0.524c-0.115,0-0.219,0.03-0.317,0.075c-0.097-0.045-0.202-0.075-0.316-0.075
		c-0.271,0-0.497,0.149-0.628,0.364c-0.1-0.042-0.209-0.065-0.323-0.065c-0.067,0-0.128,0.017-0.188,0.033
		c-0.065-0.045-0.138-0.077-0.223-0.077c-0.112,0-0.212,0.046-0.286,0.119c-0.044-0.02-0.093-0.03-0.145-0.03
		c-0.001,0-0.001,0-0.002,0c-0.06-0.144-0.203-0.245-0.369-0.245c-0.124,0-0.228,0.059-0.302,0.146
		c-0.075-0.087-0.181-0.146-0.305-0.146c-0.223,0-0.404,0.182-0.404,0.404c-0.006,0-0.012-0.003-0.017-0.003
		c-0.139,0-0.263,0.056-0.354,0.144c-0.055-0.013-0.106-0.034-0.164-0.034c-0.147,0-0.275,0.056-0.386,0.132
		c-0.185-0.105-0.393-0.17-0.622-0.17c-0.312,0-0.586,0.125-0.812,0.302c-0.447,0.087-0.79,0.461-0.79,0.932
		c0,0.081,0.027,0.153,0.045,0.228l0.107,2.623l-1.793,0.205l-0.201,0.066c-0.132,0.073-1.275,0.785-1.124,3.058
		c0.14,2.098,1.083,3.797,1.124,3.869l0.135,0.242l2.168,0.224l0.083,2.067l0.149,0.042c1.223,0.351,2.493,0.528,3.776,0.528
		c1.351,0,2.684-0.194,3.962-0.583l0.146-0.044l0.51-12.086c0.11-0.114,0.18-0.268,0.18-0.438
		C19.896,8.112,19.794,7.94,19.648,7.824z M9.594,17.598c-0.243-0.503-0.771-1.745-0.866-3.177
		c-0.088-1.317,0.355-1.854,0.521-2.007l1.573-0.18l0.224,5.516L9.594,17.598z M18.793,20.516c-2.328,0.674-4.864,0.691-7.205,0.052
		L11.124,9.143c0.009,0.005,0.017,0.014,0.027,0.019c0.155,0.221,0.357,0.398,0.613,0.495c-0.104,0.112-0.17,0.259-0.17,0.424
		c0,0.35,0.284,0.634,0.634,0.634c0.166,0,0.313-0.066,0.427-0.17c0.147,0.099,0.316,0.17,0.507,0.17
		c0.517,0,0.936-0.417,0.936-0.935c0-0.037-0.017-0.068-0.023-0.106c0.01,0,0.015,0.004,0.023,0.004
		c0.261,0,0.484-0.127,0.637-0.315c0.033,0.005,0.062,0.019,0.097,0.019c0.218,0,0.402-0.117,0.516-0.284
		c0.132,0.087,0.282,0.151,0.452,0.151c0.258,0,0.479-0.123,0.632-0.306h1.717c0.146,0.075,0.305,0.127,0.479,0.127
		c0.176,0,0.333-0.052,0.478-0.127h0.13c0.01,0,0.017,0.004,0.026,0.004c0.006,0,0.013-0.002,0.02-0.002L18.793,20.516z"/>
</g>
</svg>
