<?xml version="1.0" encoding="utf-8"?>
<!-- Generator: Adobe Illustrator 16.0.0, SVG Export Plug-In . SVG Version: 6.00 Build 0)  -->
<!DOCTYPE svg PUBLIC "-//W3C//DTD SVG 1.1//EN" "http://www.w3.org/Graphics/SVG/1.1/DTD/svg11.dtd">
<svg version="1.1" id="Layer_1" xmlns="http://www.w3.org/2000/svg" xmlns:xlink="http://www.w3.org/1999/xlink" x="0px" y="0px"
	 width="90px" height="90px" viewBox="0 0 90 90" enable-background="new 0 0 90 90" xml:space="preserve">
<path fill="#BDBEC0" d="M44.999,45"/>
<path fill="#2E8CB9" d="M44.928,14.118c-17.058,0-30.88,13.827-30.88,30.882c0,17.056,13.822,30.882,30.88,30.882
	c9.706,0,18.37-4.495,24.028-11.51L87.333,45L68.956,25.623C63.298,18.609,54.634,14.118,44.928,14.118z"/>
<path fill="#CDECF8" d="M45.005,20.629c13.456,0,24.358,10.917,24.358,24.366c0,13.458-10.902,24.371-24.358,24.371
	c-13.463,0-24.368-10.912-24.368-24.371C20.637,31.546,31.542,20.629,45.005,20.629z"/>
<g>
	<g>
		<path fill="#FFFFFF" d="M35.274,44.694c0,0.719-0.066,1.355-0.198,1.908c-0.132,0.551-0.398,1.031-0.798,1.439
			c-0.584,0.607-1.38,0.912-2.388,0.912h-3.312v-8.508h3.312c1.008,0,1.804,0.303,2.388,0.911c0.4,0.408,0.666,0.888,0.798,1.44
			C35.208,43.35,35.274,43.981,35.274,44.694z M33.678,45.552c0.016-0.221,0.024-0.506,0.024-0.857c0-0.353-0.008-0.639-0.024-0.859
			c-0.016-0.219-0.072-0.481-0.168-0.785c-0.096-0.305-0.236-0.548-0.42-0.732c-0.32-0.32-0.72-0.48-1.2-0.48h-1.764v5.725h1.764
			c0.48,0,0.88-0.16,1.2-0.48c0.184-0.184,0.324-0.43,0.42-0.736C33.606,46.036,33.662,45.772,33.678,45.552z"/>
		<path fill="#FFFFFF" d="M42.846,48.954h-6.06v-8.508h6.06v1.403h-4.512v1.979h3.972v1.393h-3.972v2.328h4.512V48.954z"/>
		<path fill="#FFFFFF" d="M52.865,48.954h-1.5v-6.072l-2.207,5.951h-1.141l-2.195-6.023v6.145h-1.5v-8.508h2.088l2.231,6.059
			l2.244-6.059h1.979V48.954z"/>
		<path fill="#FFFFFF" d="M61.422,44.706c0,0.783-0.074,1.447-0.223,1.992c-0.147,0.543-0.434,1.027-0.857,1.451
			c-0.641,0.641-1.456,0.961-2.447,0.961c-0.992,0-1.809-0.32-2.449-0.961c-0.424-0.424-0.709-0.908-0.857-1.451
			c-0.148-0.545-0.223-1.209-0.223-1.992c0-0.793,0.074-1.461,0.223-2.004c0.148-0.545,0.434-1.028,0.857-1.453
			c0.641-0.639,1.457-0.959,2.449-0.959c0.991,0,1.807,0.32,2.447,0.959c0.424,0.425,0.71,0.908,0.857,1.453
			C61.348,43.245,61.422,43.913,61.422,44.706z M59.85,44.706c0-1.209-0.203-2.024-0.611-2.448
			c-0.353-0.376-0.801-0.563-1.344-0.563c-0.545,0-0.992,0.188-1.345,0.563c-0.408,0.424-0.612,1.239-0.612,2.448
			c0,0.344,0.008,0.632,0.024,0.863c0.016,0.232,0.071,0.504,0.168,0.816c0.096,0.312,0.235,0.564,0.42,0.756
			c0.353,0.377,0.8,0.564,1.345,0.564c0.543,0,0.991-0.188,1.344-0.564c0.184-0.191,0.324-0.443,0.42-0.756s0.151-0.584,0.168-0.816
			C59.842,45.338,59.85,45.05,59.85,44.706z"/>
	</g>
	<g>
		<g>
			<path fill="#16669B" d="M35.274,44.994c0,0.719-0.066,1.355-0.198,1.908c-0.132,0.551-0.398,1.031-0.798,1.439
				c-0.584,0.607-1.38,0.912-2.388,0.912h-3.312v-8.508h3.312c1.008,0,1.804,0.303,2.388,0.911c0.4,0.408,0.666,0.888,0.798,1.44
				C35.208,43.649,35.274,44.281,35.274,44.994z M33.678,45.852c0.016-0.221,0.024-0.506,0.024-0.857
				c0-0.353-0.008-0.639-0.024-0.859c-0.016-0.219-0.072-0.481-0.168-0.785c-0.096-0.305-0.236-0.548-0.42-0.732
				c-0.32-0.32-0.72-0.48-1.2-0.48h-1.764v5.725h1.764c0.48,0,0.88-0.16,1.2-0.48c0.184-0.184,0.324-0.43,0.42-0.736
				C33.606,46.336,33.662,46.072,33.678,45.852z"/>
			<path fill="#16669B" d="M42.846,49.254h-6.06v-8.508h6.06v1.403h-4.512v1.979h3.972v1.393h-3.972v2.328h4.512V49.254z"/>
			<path fill="#16669B" d="M52.865,49.254h-1.5v-6.072l-2.207,5.951h-1.141l-2.195-6.023v6.145h-1.5v-8.508h2.088l2.231,6.059
				l2.244-6.059h1.979V49.254z"/>
			<path fill="#16669B" d="M61.422,45.006c0,0.783-0.074,1.447-0.223,1.992c-0.147,0.543-0.434,1.027-0.857,1.451
				c-0.641,0.641-1.456,0.961-2.447,0.961c-0.992,0-1.809-0.32-2.449-0.961c-0.424-0.424-0.709-0.908-0.857-1.451
				c-0.148-0.545-0.223-1.209-0.223-1.992c0-0.793,0.074-1.461,0.223-2.004c0.148-0.545,0.434-1.028,0.857-1.453
				c0.641-0.639,1.457-0.959,2.449-0.959c0.991,0,1.807,0.32,2.447,0.959c0.424,0.425,0.71,0.908,0.857,1.453
				C61.348,43.545,61.422,44.213,61.422,45.006z M59.85,45.006c0-1.209-0.203-2.024-0.611-2.448
				c-0.353-0.376-0.801-0.563-1.344-0.563c-0.545,0-0.992,0.188-1.345,0.563c-0.408,0.424-0.612,1.239-0.612,2.448
				c0,0.344,0.008,0.632,0.024,0.863c0.016,0.232,0.071,0.504,0.168,0.816c0.096,0.312,0.235,0.564,0.42,0.756
				c0.353,0.377,0.8,0.564,1.345,0.564c0.543,0,0.991-0.188,1.344-0.564c0.184-0.191,0.324-0.443,0.42-0.756
				s0.151-0.584,0.168-0.816C59.842,45.638,59.85,45.35,59.85,45.006z"/>
		</g>
	</g>
</g>
</svg>
