<?xml version="1.0" encoding="utf-8"?>
<!-- Generator: Adobe Illustrator 16.0.0, SVG Export Plug-In . SVG Version: 6.00 Build 0)  -->
<!DOCTYPE svg PUBLIC "-//W3C//DTD SVG 1.1//EN" "http://www.w3.org/Graphics/SVG/1.1/DTD/svg11.dtd">
<svg version="1.1" id="Layer_1" xmlns="http://www.w3.org/2000/svg" xmlns:xlink="http://www.w3.org/1999/xlink" x="0px" y="0px"
	 width="90px" height="90px" viewBox="0 0 90 90" enable-background="new 0 0 90 90" xml:space="preserve">
<path fill="#BDBEC0" d="M44.999,45"/>
<path fill="#2E8CB9" d="M44.928,14.118c-17.058,0-30.88,13.827-30.88,30.882c0,17.057,13.822,30.882,30.88,30.882
	c9.706,0,18.37-4.495,24.028-11.51L87.333,45L68.956,25.623C63.298,18.609,54.634,14.118,44.928,14.118z"/>
<path fill="#CDECF8" d="M45.005,20.629c13.456,0,24.358,10.917,24.358,24.366c0,13.458-10.902,24.371-24.358,24.371
	c-13.463,0-24.368-10.912-24.368-24.371C20.637,31.546,31.542,20.629,45.005,20.629z"/>
<g>
	<g>
		<path fill="#FFFFFF" d="M34.279,39.364c0.651,0.616,0.976,1.444,0.976,2.485s-0.325,1.872-0.976,2.493
			c-0.651,0.621-1.577,0.931-2.778,0.931h-2.252v3.814h-1.922V38.44h4.174C32.702,38.44,33.628,38.748,34.279,39.364z M32.83,43.118
			c0.315-0.306,0.473-0.723,0.473-1.254c0-0.531-0.158-0.951-0.473-1.262c-0.315-0.31-0.784-0.465-1.404-0.465h-2.177v3.439h2.177
			C32.046,43.576,32.515,43.423,32.83,43.118z"/>
		<path fill="#FFFFFF" d="M43.574,49.087h-6.877V38.44h1.937v8.814h4.94V49.087z"/>
		<path fill="#FFFFFF" d="M53.305,49.087h-2.027l-0.69-2.042h-4.233l-0.69,2.042h-1.952l3.74-10.646h2.117L53.305,49.087z
			 M49.986,45.303l-1.519-4.49l-1.516,4.49H49.986z"/>
		<path fill="#FFFFFF" d="M62.674,38.44l-3.723,6.562v4.084h-1.953v-4.084l-3.693-6.562h2.103l2.629,4.595l2.627-4.595H62.674z"/>
	</g>
	<g>
		<g>
			<path fill="#16669B" d="M34.279,39.664c0.651,0.616,0.976,1.444,0.976,2.485s-0.325,1.872-0.976,2.493
				c-0.651,0.621-1.577,0.931-2.778,0.931h-2.252v3.813h-1.922V38.74h4.174C32.702,38.74,33.628,39.048,34.279,39.664z
				 M32.83,43.418c0.315-0.306,0.473-0.723,0.473-1.254c0-0.531-0.158-0.951-0.473-1.262c-0.315-0.31-0.784-0.465-1.404-0.465
				h-2.177v3.439h2.177C32.046,43.876,32.515,43.723,32.83,43.418z"/>
			<path fill="#16669B" d="M43.574,49.387h-6.877V38.74h1.937v8.814h4.94V49.387z"/>
			<path fill="#16669B" d="M53.305,49.387h-2.027l-0.69-2.041h-4.233l-0.69,2.041h-1.952l3.74-10.646h2.117L53.305,49.387z
				 M49.986,45.604l-1.519-4.491l-1.516,4.491H49.986z"/>
			<path fill="#16669B" d="M62.674,38.74l-3.723,6.562v4.084h-1.953v-4.084l-3.693-6.562h2.103l2.629,4.595l2.627-4.595H62.674z"/>
		</g>
	</g>
</g>
</svg>
