<?xml version="1.0" encoding="utf-8"?>
<!-- Generator: Adobe Illustrator 16.0.0, SVG Export Plug-In . SVG Version: 6.00 Build 0)  -->
<!DOCTYPE svg PUBLIC "-//W3C//DTD SVG 1.1//EN" "http://www.w3.org/Graphics/SVG/1.1/DTD/svg11.dtd">
<svg version="1.1" id="Layer_1" xmlns="http://www.w3.org/2000/svg" xmlns:xlink="http://www.w3.org/1999/xlink" x="0px" y="0px"
	 width="90px" height="90px" viewBox="0 0 90 90" enable-background="new 0 0 90 90" xml:space="preserve">
<path fill="#BDBEC0" d="M44.999,45"/>
<path fill="#2E8CB9" d="M44.928,14.118c-17.058,0-30.88,13.827-30.88,30.882c0,17.057,13.822,30.882,30.88,30.882
	c9.706,0,18.37-4.495,24.028-11.51L87.333,45L68.956,25.623C63.298,18.609,54.634,14.118,44.928,14.118z"/>
<path fill="#CDECF8" d="M45.005,20.629c13.456,0,24.358,10.917,24.358,24.366c0,13.458-10.902,24.371-24.358,24.371
	c-13.463,0-24.368-10.912-24.368-24.371C20.637,31.546,31.542,20.629,45.005,20.629z"/>
<g>
	<g>
		<path fill="#FFFFFF" d="M28.367,47.476h-4.854v-7.513h1.367v6.22h3.486V47.476z"/>
		<path fill="#FFFFFF" d="M35.139,43.724c0,0.692-0.065,1.279-0.196,1.759s-0.383,0.908-0.758,1.282
			c-0.565,0.565-1.286,0.848-2.162,0.848s-1.597-0.282-2.162-0.848c-0.375-0.374-0.627-0.802-0.758-1.282s-0.196-1.067-0.196-1.759
			c0-0.699,0.065-1.289,0.196-1.77s0.383-0.908,0.758-1.282c0.565-0.565,1.286-0.848,2.162-0.848s1.597,0.283,2.162,0.848
			c0.375,0.375,0.627,0.802,0.758,1.282S35.139,43.025,35.139,43.724z M33.75,43.724c0-1.066-0.18-1.787-0.541-2.162
			c-0.311-0.332-0.707-0.498-1.187-0.498s-0.876,0.166-1.187,0.498c-0.36,0.375-0.54,1.095-0.54,2.162
			c0,0.304,0.007,0.558,0.021,0.763s0.063,0.445,0.148,0.721c0.084,0.275,0.208,0.498,0.371,0.667
			c0.311,0.333,0.707,0.498,1.187,0.498s0.876-0.165,1.187-0.498c0.162-0.169,0.286-0.392,0.371-0.667
			c0.085-0.275,0.134-0.516,0.148-0.721S33.75,44.028,33.75,43.724z"/>
		<path fill="#FFFFFF" d="M42.355,47.476h-1.431l-0.487-1.441h-2.988l-0.488,1.441h-1.377l2.639-7.513h1.494L42.355,47.476z
			 M40.013,44.806l-1.07-3.169l-1.07,3.169H40.013z"/>
		<path fill="#FFFFFF" d="M49.148,43.714c0,0.636-0.059,1.197-0.176,1.685s-0.352,0.911-0.705,1.271
			c-0.516,0.537-1.219,0.806-2.108,0.806h-2.925v-7.513h2.925c0.89,0,1.593,0.269,2.108,0.805c0.354,0.36,0.588,0.784,0.705,1.272
			C49.09,42.527,49.148,43.085,49.148,43.714z M47.738,44.471c0.014-0.194,0.021-0.447,0.021-0.757c0-0.311-0.008-0.563-0.021-0.758
			s-0.064-0.426-0.148-0.694c-0.084-0.268-0.209-0.483-0.371-0.646c-0.282-0.283-0.636-0.424-1.06-0.424h-1.558v5.055h1.558
			c0.424,0,0.777-0.141,1.06-0.424c0.162-0.162,0.287-0.38,0.371-0.651S47.725,44.665,47.738,44.471z"/>
		<path fill="#FFFFFF" d="M51.87,47.476h-1.388v-7.513h1.388V47.476z"/>
		<path fill="#FFFFFF" d="M59.638,47.476h-1.409l-3.253-5.161v5.161H53.63v-7.513h1.451l3.211,5.086v-5.086h1.346V47.476z"/>
		<path fill="#FFFFFF" d="M67.099,47.476h-0.88l-0.159-0.826c-0.127,0.24-0.363,0.459-0.71,0.656
			c-0.346,0.198-0.738,0.301-1.176,0.308c-0.947,0.014-1.692-0.265-2.236-0.837c-0.367-0.382-0.622-0.817-0.763-1.309
			c-0.142-0.491-0.212-1.072-0.212-1.744c0-0.685,0.066-1.264,0.201-1.738c0.134-0.473,0.392-0.901,0.773-1.282
			c0.282-0.282,0.623-0.5,1.022-0.652c0.399-0.152,0.804-0.228,1.214-0.228c0.925,0,1.667,0.286,2.225,0.858
			c0.424,0.431,0.653,0.936,0.689,1.515h-1.399c-0.014-0.212-0.123-0.441-0.328-0.688c-0.262-0.304-0.661-0.456-1.197-0.456
			c-0.502,0-0.911,0.17-1.229,0.509c-0.389,0.403-0.583,1.124-0.583,2.162c0,1.052,0.198,1.784,0.594,2.194
			c0.297,0.317,0.703,0.477,1.219,0.477c0.473,0,0.848-0.145,1.123-0.435c0.325-0.339,0.487-0.826,0.487-1.462h-1.791v-1.134h3.116
			V47.476z"/>
	</g>
	<g>
		<g>
			<path fill="#16669B" d="M28.367,47.976h-4.854v-7.513h1.367v6.22h3.486V47.976z"/>
			<path fill="#16669B" d="M35.139,44.224c0,0.692-0.065,1.279-0.196,1.759s-0.383,0.908-0.758,1.282
				c-0.565,0.565-1.286,0.848-2.162,0.848s-1.597-0.282-2.162-0.848c-0.375-0.374-0.627-0.802-0.758-1.282s-0.196-1.067-0.196-1.759
				c0-0.699,0.065-1.289,0.196-1.77s0.383-0.908,0.758-1.282c0.565-0.565,1.286-0.848,2.162-0.848s1.597,0.283,2.162,0.848
				c0.375,0.375,0.627,0.802,0.758,1.282S35.139,43.525,35.139,44.224z M33.75,44.224c0-1.066-0.18-1.787-0.541-2.162
				c-0.311-0.332-0.707-0.498-1.187-0.498s-0.876,0.166-1.187,0.498c-0.36,0.375-0.54,1.095-0.54,2.162
				c0,0.304,0.007,0.558,0.021,0.763s0.063,0.445,0.148,0.721c0.084,0.275,0.208,0.498,0.371,0.667
				c0.311,0.333,0.707,0.498,1.187,0.498s0.876-0.165,1.187-0.498c0.162-0.169,0.286-0.392,0.371-0.667
				c0.085-0.275,0.134-0.516,0.148-0.721S33.75,44.528,33.75,44.224z"/>
			<path fill="#16669B" d="M42.355,47.976h-1.431l-0.487-1.441h-2.988l-0.488,1.441h-1.377l2.639-7.513h1.494L42.355,47.976z
				 M40.013,45.306l-1.07-3.169l-1.07,3.169H40.013z"/>
			<path fill="#16669B" d="M49.148,44.214c0,0.636-0.059,1.197-0.176,1.685s-0.352,0.911-0.705,1.271
				c-0.516,0.537-1.219,0.806-2.108,0.806h-2.925v-7.513h2.925c0.89,0,1.593,0.269,2.108,0.805c0.354,0.36,0.588,0.784,0.705,1.272
				C49.09,43.027,49.148,43.585,49.148,44.214z M47.738,44.971c0.014-0.194,0.021-0.447,0.021-0.757
				c0-0.311-0.008-0.563-0.021-0.758s-0.064-0.426-0.148-0.694c-0.084-0.268-0.209-0.483-0.371-0.646
				c-0.282-0.283-0.636-0.424-1.06-0.424h-1.558v5.055h1.558c0.424,0,0.777-0.141,1.06-0.424c0.162-0.162,0.287-0.38,0.371-0.651
				S47.725,45.165,47.738,44.971z"/>
			<path fill="#16669B" d="M51.87,47.976h-1.388v-7.513h1.388V47.976z"/>
			<path fill="#16669B" d="M59.638,47.976h-1.409l-3.253-5.161v5.161H53.63v-7.513h1.451l3.211,5.086v-5.086h1.346V47.976z"/>
			<path fill="#16669B" d="M67.099,47.976h-0.88l-0.159-0.826c-0.127,0.24-0.363,0.459-0.71,0.656
				c-0.346,0.198-0.738,0.301-1.176,0.308c-0.947,0.014-1.692-0.265-2.236-0.837c-0.367-0.382-0.622-0.817-0.763-1.309
				c-0.142-0.491-0.212-1.072-0.212-1.744c0-0.685,0.066-1.264,0.201-1.738c0.134-0.473,0.392-0.901,0.773-1.282
				c0.282-0.282,0.623-0.5,1.022-0.652c0.399-0.152,0.804-0.228,1.214-0.228c0.925,0,1.667,0.286,2.225,0.858
				c0.424,0.431,0.653,0.936,0.689,1.515h-1.399c-0.014-0.212-0.123-0.441-0.328-0.688c-0.262-0.304-0.661-0.456-1.197-0.456
				c-0.502,0-0.911,0.17-1.229,0.509c-0.389,0.403-0.583,1.124-0.583,2.162c0,1.052,0.198,1.784,0.594,2.194
				c0.297,0.317,0.703,0.477,1.219,0.477c0.473,0,0.848-0.145,1.123-0.435c0.325-0.339,0.487-0.826,0.487-1.462h-1.791v-1.134h3.116
				V47.976z"/>
		</g>
	</g>
</g>
</svg>
