<?xml version="1.0" encoding="utf-8"?>
<!-- Generator: Adobe Illustrator 16.0.0, SVG Export Plug-In . SVG Version: 6.00 Build 0)  -->
<!DOCTYPE svg PUBLIC "-//W3C//DTD SVG 1.1//EN" "http://www.w3.org/Graphics/SVG/1.1/DTD/svg11.dtd">
<svg version="1.1" id="Layer_1" xmlns="http://www.w3.org/2000/svg" xmlns:xlink="http://www.w3.org/1999/xlink" x="0px" y="0px"
	 width="29.57px" height="35px" viewBox="0 0 29.57 35" enable-background="new 0 0 29.57 35" xml:space="preserve">
<path fill="#939598" d="M29.596,14.76c0-8.18-6.631-14.811-14.811-14.811c-8.18,0-14.811,6.63-14.811,14.811
	c0,4.657,2.154,8.809,5.518,11.523l9.292,8.812l9.292-8.812C27.441,23.568,29.596,19.417,29.596,14.76z"/>
<circle fill="#F1F2F2" cx="14.785" cy="14.967" r="11.687"/>
<polygon fill="#757576" points="14.785,7.39 22.25,12.947 14.785,12.947 7.32,12.947 "/>
<polygon fill="#757576" points="8.877,14.089 8.877,21.084 13.682,21.084 13.682,17.006 16.889,17.006 16.889,21.084 20.692,21.084 
	20.692,14.089 "/>
</svg>
