<?xml version="1.0" encoding="utf-8"?>
<!-- Generator: Adobe Illustrator 16.0.0, SVG Export Plug-In . SVG Version: 6.00 Build 0)  -->
<!DOCTYPE svg PUBLIC "-//W3C//DTD SVG 1.1//EN" "http://www.w3.org/Graphics/SVG/1.1/DTD/svg11.dtd">
<svg version="1.1" id="Layer_1" xmlns="http://www.w3.org/2000/svg" xmlns:xlink="http://www.w3.org/1999/xlink" x="0px" y="0px"
	 width="84.355px" height="100.09px" viewBox="0 0 84.355 100.09" enable-background="new 0 0 84.355 100.09" xml:space="preserve">
<g>
	<path fill="#BCBEC0" d="M33.923,39.179"/>
	<path fill="#2C8BB8" d="M84.355,42.177C84.355,18.882,65.476,0,42.177,0C18.882,0,0,18.882,0,42.177
		C0,55.44,6.135,67.263,15.713,74.995l26.464,25.095L68.64,74.995C78.222,67.263,84.355,55.44,84.355,42.177z"/>
	<path fill="#CDECF8" d="M75.459,42.768c0,18.378-14.9,33.277-33.28,33.277c-18.382,0-33.283-14.899-33.283-33.277
		c0-18.383,14.901-33.284,33.283-33.284C60.559,9.483,75.459,24.385,75.459,42.768z"/>
	<g>
		<circle fill="#073D5B" cx="23.384" cy="45.869" r="4.819"/>
		<circle fill="#073D5B" cx="54.823" cy="45.869" r="4.82"/>
		<path fill="#14659B" d="M69.847,43.626c0,0-0.045-0.246-0.003-0.863c0.04-0.616-0.207-2.711-0.494-3.697s-0.82-1.561-0.82-1.561
			s-3.616-3.985-3.945-4.19c-0.193-0.121-0.501-0.17-0.722-0.19c-0.12-0.132-0.29-0.218-0.481-0.218h-0.194
			c-0.293-0.393-0.82-0.977-1.382-0.977c-0.339,0-4.831,0.036-9.589,0.072c-5.546,0.043-11.831,0.092-12.386,0.092
			c-0.75,0-1.375,0.605-1.713,1.015h-0.225c-0.2,0-0.373,0.095-0.493,0.236l-0.712,0.006c0,0-0.287-0.022-0.616,0.101
			s-5.62,4.258-5.62,4.258s-14.543,0.973-15.596,1.87c-0.74,0.63-0.547,5.483-0.547,5.483h-0.79v1.791h1.857l0.014-0.212
			l3.451-0.246c0,0,0.371-2.196,0.518-2.555c0.114-0.28,0.428-0.646,0.745-0.684c0.36-0.044,5.457-0.072,5.778,0.083
			c0.575,0.273,1.366,2.44,1.654,2.892c0.287,0.451,0.698,0.493,0.698,0.493h21.483c0,0,0.944-3.615,1.396-4.026
			c0.452-0.411,6.285-0.452,6.86,0c0.574,0.452,1.396,2.588,1.602,2.999s0.657,0.575,0.657,0.575l8.791-0.411h1.438v-2.136H69.847z
			 M39.83,32.424c0.556,0,6.843-0.049,12.389-0.092c4.756-0.037,9.248-0.072,9.586-0.072c0.33,0,0.691,0.325,0.966,0.648h-0.047
			c-0.192,0-0.361,0.085-0.48,0.215l-23.21,0.208c-0.118-0.131-0.285-0.216-0.476-0.219C38.874,32.783,39.328,32.424,39.83,32.424z
			 M40.487,38.122h-8.708l4.724-4.252l4.95-0.103L40.487,38.122z M42.54,38.122l0.863-4.354h6.161l1.562,4.354H42.54z
			 M54.262,36.417l-0.405-2.65h10.249l2.403,2.65H54.262z"/>
	</g>
</g>
</svg>
