<?xml version="1.0" encoding="utf-8"?>
<!-- Generator: Adobe Illustrator 16.0.0, SVG Export Plug-In . SVG Version: 6.00 Build 0)  -->
<!DOCTYPE svg PUBLIC "-//W3C//DTD SVG 1.1//EN" "http://www.w3.org/Graphics/SVG/1.1/DTD/svg11.dtd">
<svg version="1.1" id="Layer_1" xmlns="http://www.w3.org/2000/svg" xmlns:xlink="http://www.w3.org/1999/xlink" x="0px" y="0px"
	 width="29.57px" height="35.084px" viewBox="0 0 29.57 35.084" enable-background="new 0 0 29.57 35.084" xml:space="preserve">
<g>
	<path fill="#EF6B6C" d="M29.57,14.785C29.57,6.619,22.951,0,14.785,0C6.619,0,0,6.619,0,14.785c0,4.648,2.151,8.793,5.508,11.504
		l9.276,8.796l9.276-8.796C27.417,23.578,29.57,19.433,29.57,14.785z"/>
	<circle fill="#F8EAE8" cx="14.784" cy="14.991" r="11.666"/>
	<g>
		<polygon fill="#E05353" points="19.964,16.007 12.69,16.007 11.912,10.812 20.744,10.812 		"/>
		<polygon fill="#E05353" points="12.051,17.045 11.029,10.812 10.774,9.253 10.772,9.25 9.192,9.251 9.192,9.253 7.365,9.253 
			7.365,10.812 9.449,10.812 10.726,18.593 10.729,18.593 10.727,18.603 14.117,18.603 19.901,18.603 19.901,17.045 		"/>
		<circle fill="#E05353" cx="12.56" cy="20.538" r="1.607"/>
		<path fill="#E05353" d="M19.901,20.538c0,0.888-0.721,1.606-1.61,1.606c-0.884,0-1.608-0.719-1.608-1.606
			c0-0.889,0.725-1.606,1.608-1.606C19.18,18.931,19.901,19.649,19.901,20.538z"/>
	</g>
</g>
</svg>
